<svg width="349" height="274" viewBox="0 0 349 274" fill="none" xmlns="http://www.w3.org/2000/svg"><circle cx="204" cy="147" r="2" fill="#fff" fill-opacity="0.2"></circle><circle cx="212" cy="147" r="2" fill="#fff" fill-opacity="0.2"></circle><circle cx="220" cy="147" r="2" fill="#fff" fill-opacity="0.2"></circle><circle cx="228" cy="147" r="2" fill="#fff" fill-opacity="0.2"></circle><circle cx="236" cy="147" r="2" fill="#fff" fill-opacity="0.2"></circle><circle cx="244" cy="147" r="2" fill="#fff" fill-opacity="0.2"></circle><circle cx="252" cy="147" r="2" fill="#fff" fill-opacity="0.2"></circle><circle cx="260" cy="147" r="2" fill="#fff" fill-opacity="0.2"></circle><circle cx="204" cy="155" r="2" fill="#fff" fill-opacity="0.2"></circle><circle cx="212" cy="155" r="2" fill="#fff" fill-opacity="0.2"></circle><circle cx="220" cy="155" r="2" fill="#fff" fill-opacity="0.2"></circle><circle cx="228" cy="155" r="2" fill="#fff" fill-opacity="0.2"></circle><circle cx="236" cy="155" r="2" fill="#fff" fill-opacity="0.2"></circle><circle cx="244" cy="155" r="2" fill="#fff" fill-opacity="0.2"></circle><circle cx="252" cy="155" r="2" fill="#fff" fill-opacity="0.2"></circle><circle cx="260" cy="155" r="2" fill="#fff" fill-opacity="0.2"></circle><circle cx="204" cy="163" r="2" fill="#fff" fill-opacity="0.2"></circle><circle cx="212" cy="163" r="2" fill="#fff" fill-opacity="0.2"></circle><circle cx="220" cy="163" r="2" fill="#fff" fill-opacity="0.2"></circle><circle cx="228" cy="163" r="2" fill="#fff" fill-opacity="0.2"></circle><circle cx="236" cy="163" r="2" fill="#fff" fill-opacity="0.2"></circle><circle cx="244" cy="163" r="2" fill="#fff" fill-opacity="0.2"></circle><circle cx="252" cy="163" r="2" fill="#fff" fill-opacity="0.2"></circle><circle cx="260" cy="163" r="2" fill="#fff" fill-opacity="0.2"></circle><circle cx="204" cy="171" r="2" fill="#fff" fill-opacity="0.2"></circle><circle cx="212" cy="171" r="2" fill="#fff" fill-opacity="0.2"></circle><circle cx="220" cy="171" r="2" fill="#fff" fill-opacity="0.2"></circle><circle cx="228" cy="171" r="2" fill="#fff" fill-opacity="0.2"></circle><circle cx="236" cy="171" r="2" fill="#fff" fill-opacity="0.2"></circle><circle cx="244" cy="171" r="2" fill="#fff" fill-opacity="0.2"></circle><circle cx="252" cy="171" r="2" fill="#fff" fill-opacity="0.2"></circle><circle cx="260" cy="171" r="2" fill="#fff" fill-opacity="0.2"></circle><circle cx="204" cy="179" r="2" fill="#fff" fill-opacity="0.2"></circle><circle cx="212" cy="179" r="2" fill="#fff" fill-opacity="0.2"></circle><circle cx="220" cy="179" r="2" fill="#fff" fill-opacity="0.2"></circle><circle cx="228" cy="179" r="2" fill="#fff" fill-opacity="0.2"></circle><circle cx="236" cy="179" r="2" fill="#fff" fill-opacity="0.2"></circle><circle cx="244" cy="179" r="2" fill="#fff" fill-opacity="0.2"></circle><circle cx="252" cy="179" r="2" fill="#fff" fill-opacity="0.2"></circle><circle cx="260" cy="179" r="2" fill="#fff" fill-opacity="0.2"></circle><circle cx="204" cy="187" r="2" fill="#fff" fill-opacity="0.2"></circle><circle cx="212" cy="187" r="2" fill="#fff" fill-opacity="0.2"></circle><circle cx="220" cy="187" r="2" fill="#fff" fill-opacity="0.2"></circle><circle cx="228" cy="187" r="2" fill="#fff" fill-opacity="0.2"></circle><circle cx="236" cy="187" r="2" fill="#fff" fill-opacity="0.2"></circle><circle cx="244" cy="187" r="2" fill="#fff" fill-opacity="0.2"></circle><circle cx="252" cy="187" r="2" fill="#fff" fill-opacity="0.2"></circle><circle cx="260" cy="187" r="2" fill="#fff" fill-opacity="0.2"></circle><circle cx="204" cy="195" r="2" fill="#fff" fill-opacity="0.2"></circle><circle cx="212" cy="195" r="2" fill="#fff" fill-opacity="0.2"></circle><circle cx="220" cy="195" r="2" fill="#fff" fill-opacity="0.2"></circle><circle cx="228" cy="195" r="2" fill="#fff" fill-opacity="0.2"></circle><circle cx="236" cy="195" r="2" fill="#fff" fill-opacity="0.2"></circle><circle cx="244" cy="195" r="2" fill="#fff" fill-opacity="0.2"></circle><circle cx="252" cy="195" r="2" fill="#fff" fill-opacity="0.2"></circle><circle cx="260" cy="195" r="2" fill="#fff" fill-opacity="0.2"></circle><circle cx="204" cy="203" r="2" fill="#fff" fill-opacity="0.2"></circle><circle cx="212" cy="203" r="2" fill="#fff" fill-opacity="0.2"></circle><circle cx="220" cy="203" r="2" fill="#fff" fill-opacity="0.2"></circle><circle cx="228" cy="203" r="2" fill="#fff" fill-opacity="0.2"></circle><circle cx="236" cy="203" r="2" fill="#fff" fill-opacity="0.2"></circle><circle cx="244" cy="203" r="2" fill="#fff" fill-opacity="0.2"></circle><circle cx="252" cy="203" r="2" fill="#fff" fill-opacity="0.2"></circle><circle cx="260" cy="203" r="2" fill="#fff" fill-opacity="0.2"></circle><circle cx="204" cy="211" r="2" fill="#fff" fill-opacity="0.2"></circle><circle cx="212" cy="211" r="2" fill="#fff" fill-opacity="0.2"></circle><circle cx="220" cy="211" r="2" fill="#fff" fill-opacity="0.2"></circle><circle cx="228" cy="211" r="2" fill="#fff" fill-opacity="0.2"></circle><circle cx="236" cy="211" r="2" fill="#fff" fill-opacity="0.2"></circle><circle cx="244" cy="211" r="2" fill="#fff" fill-opacity="0.2"></circle><circle cx="252" cy="211" r="2" fill="#fff" fill-opacity="0.2"></circle><circle cx="260" cy="211" r="2" fill="#fff" fill-opacity="0.2"></circle><circle cx="204" cy="219" r="2" fill="#fff" fill-opacity="0.2"></circle><circle cx="212" cy="219" r="2" fill="#fff" fill-opacity="0.2"></circle><circle cx="220" cy="219" r="2" fill="#fff" fill-opacity="0.2"></circle><circle cx="228" cy="219" r="2" fill="#fff" fill-opacity="0.2"></circle><circle cx="236" cy="219" r="2" fill="#fff" fill-opacity="0.2"></circle><circle cx="244" cy="219" r="2" fill="#fff" fill-opacity="0.2"></circle><circle cx="252" cy="219" r="2" fill="#fff" fill-opacity="0.2"></circle><circle cx="260" cy="219" r="2" fill="#fff" fill-opacity="0.2"></circle><circle cx="73" cy="116" r="2" transform="rotate(-90 73 116)" fill="#fff" fill-opacity="0.2"></circle><circle cx="73" cy="108" r="2" transform="rotate(-90 73 108)" fill="#fff" fill-opacity="0.2"></circle><circle cx="73" cy="100" r="2" transform="rotate(-90 73 100)" fill="#fff" fill-opacity="0.2"></circle><circle cx="73" cy="92" r="2" transform="rotate(-90 73 92)" fill="#fff" fill-opacity="0.2"></circle><circle cx="73" cy="84" r="2" transform="rotate(-90 73 84)" fill="#fff" fill-opacity="0.2"></circle><circle cx="73" cy="76" r="2" transform="rotate(-90 73 76)" fill="#fff" fill-opacity="0.2"></circle><circle cx="73" cy="68" r="2" transform="rotate(-90 73 68)" fill="#fff" fill-opacity="0.2"></circle><circle cx="73" cy="60" r="2" transform="rotate(-90 73 60)" fill="#fff" fill-opacity="0.2"></circle><circle cx="81" cy="116" r="2" transform="rotate(-90 81 116)" fill="#fff" fill-opacity="0.2"></circle><circle cx="81" cy="108" r="2" transform="rotate(-90 81 108)" fill="#fff" fill-opacity="0.2"></circle><circle cx="81" cy="100" r="2" transform="rotate(-90 81 100)" fill="#fff" fill-opacity="0.2"></circle><circle cx="81" cy="92" r="2" transform="rotate(-90 81 92)" fill="#fff" fill-opacity="0.2"></circle><circle cx="81" cy="84" r="2" transform="rotate(-90 81 84)" fill="#fff" fill-opacity="0.2"></circle><circle cx="81" cy="76" r="2" transform="rotate(-90 81 76)" fill="#fff" fill-opacity="0.2"></circle><circle cx="81" cy="68" r="2" transform="rotate(-90 81 68)" fill="#fff" fill-opacity="0.2"></circle><circle cx="81" cy="60" r="2" transform="rotate(-90 81 60)" fill="#fff" fill-opacity="0.2"></circle><circle cx="89" cy="116" r="2" transform="rotate(-90 89 116)" fill="#fff" fill-opacity="0.2"></circle><circle cx="89" cy="108" r="2" transform="rotate(-90 89 108)" fill="#fff" fill-opacity="0.2"></circle><circle cx="89" cy="100" r="2" transform="rotate(-90 89 100)" fill="#fff" fill-opacity="0.2"></circle><circle cx="89" cy="92" r="2" transform="rotate(-90 89 92)" fill="#fff" fill-opacity="0.2"></circle><circle cx="89" cy="84" r="2" transform="rotate(-90 89 84)" fill="#fff" fill-opacity="0.2"></circle><circle cx="89" cy="76" r="2" transform="rotate(-90 89 76)" fill="#fff" fill-opacity="0.2"></circle><circle cx="89" cy="68" r="2" transform="rotate(-90 89 68)" fill="#fff" fill-opacity="0.2"></circle><circle cx="89" cy="60" r="2" transform="rotate(-90 89 60)" fill="#fff" fill-opacity="0.2"></circle><circle cx="97" cy="116" r="2" transform="rotate(-90 97 116)" fill="#fff" fill-opacity="0.2"></circle><circle cx="97" cy="108" r="2" transform="rotate(-90 97 108)" fill="#fff" fill-opacity="0.2"></circle><circle cx="97" cy="100" r="2" transform="rotate(-90 97 100)" fill="#fff" fill-opacity="0.2"></circle><circle cx="97" cy="92" r="2" transform="rotate(-90 97 92)" fill="#fff" fill-opacity="0.2"></circle><circle cx="97" cy="84" r="2" transform="rotate(-90 97 84)" fill="#fff" fill-opacity="0.2"></circle><circle cx="97" cy="76" r="2" transform="rotate(-90 97 76)" fill="#fff" fill-opacity="0.2"></circle><circle cx="97" cy="68" r="2" transform="rotate(-90 97 68)" fill="#fff" fill-opacity="0.2"></circle><circle cx="97" cy="60" r="2" transform="rotate(-90 97 60)" fill="#fff" fill-opacity="0.2"></circle><circle cx="105" cy="116" r="2" transform="rotate(-90 105 116)" fill="#fff" fill-opacity="0.2"></circle><circle cx="105" cy="108" r="2" transform="rotate(-90 105 108)" fill="#fff" fill-opacity="0.2"></circle><circle cx="105" cy="100" r="2" transform="rotate(-90 105 100)" fill="#fff" fill-opacity="0.2"></circle><circle cx="105" cy="92" r="2" transform="rotate(-90 105 92)" fill="#fff" fill-opacity="0.2"></circle><circle cx="105" cy="84" r="2" transform="rotate(-90 105 84)" fill="#fff" fill-opacity="0.2"></circle><circle cx="105" cy="76" r="2" transform="rotate(-90 105 76)" fill="#fff" fill-opacity="0.2"></circle><circle cx="105" cy="68" r="2" transform="rotate(-90 105 68)" fill="#fff" fill-opacity="0.2"></circle><circle cx="105" cy="60" r="2" transform="rotate(-90 105 60)" fill="#fff" fill-opacity="0.2"></circle><circle cx="113" cy="116" r="2" transform="rotate(-90 113 116)" fill="#fff" fill-opacity="0.2"></circle><circle cx="113" cy="108" r="2" transform="rotate(-90 113 108)" fill="#fff" fill-opacity="0.2"></circle><circle cx="113" cy="100" r="2" transform="rotate(-90 113 100)" fill="#fff" fill-opacity="0.2"></circle><circle cx="113" cy="92" r="2" transform="rotate(-90 113 92)" fill="#fff" fill-opacity="0.2"></circle><circle cx="113" cy="84" r="2" transform="rotate(-90 113 84)" fill="#fff" fill-opacity="0.2"></circle><circle cx="113" cy="76" r="2" transform="rotate(-90 113 76)" fill="#fff" fill-opacity="0.2"></circle><circle cx="113" cy="68" r="2" transform="rotate(-90 113 68)" fill="#fff" fill-opacity="0.2"></circle><circle cx="113" cy="60" r="2" transform="rotate(-90 113 60)" fill="#fff" fill-opacity="0.2"></circle><circle cx="121" cy="116" r="2" transform="rotate(-90 121 116)" fill="#fff" fill-opacity="0.2"></circle><circle cx="121" cy="108" r="2" transform="rotate(-90 121 108)" fill="#fff" fill-opacity="0.2"></circle><circle cx="121" cy="100" r="2" transform="rotate(-90 121 100)" fill="#fff" fill-opacity="0.2"></circle><circle cx="121" cy="92" r="2" transform="rotate(-90 121 92)" fill="#fff" fill-opacity="0.2"></circle><circle cx="121" cy="84" r="2" transform="rotate(-90 121 84)" fill="#fff" fill-opacity="0.2"></circle><circle cx="121" cy="76" r="2" transform="rotate(-90 121 76)" fill="#fff" fill-opacity="0.2"></circle><circle cx="121" cy="68" r="2" transform="rotate(-90 121 68)" fill="#fff" fill-opacity="0.2"></circle><circle cx="121" cy="60" r="2" transform="rotate(-90 121 60)" fill="#fff" fill-opacity="0.2"></circle><circle cx="129" cy="116" r="2" transform="rotate(-90 129 116)" fill="#fff" fill-opacity="0.2"></circle><circle cx="129" cy="108" r="2" transform="rotate(-90 129 108)" fill="#fff" fill-opacity="0.2"></circle><circle cx="129" cy="100" r="2" transform="rotate(-90 129 100)" fill="#fff" fill-opacity="0.2"></circle><circle cx="129" cy="92" r="2" transform="rotate(-90 129 92)" fill="#fff" fill-opacity="0.2"></circle><circle cx="129" cy="84" r="2" transform="rotate(-90 129 84)" fill="#fff" fill-opacity="0.2"></circle><circle cx="129" cy="76" r="2" transform="rotate(-90 129 76)" fill="#fff" fill-opacity="0.2"></circle><circle cx="129" cy="68" r="2" transform="rotate(-90 129 68)" fill="#fff" fill-opacity="0.2"></circle><circle cx="129" cy="60" r="2" transform="rotate(-90 129 60)" fill="#fff" fill-opacity="0.2"></circle><circle cx="137" cy="116" r="2" transform="rotate(-90 137 116)" fill="#fff" fill-opacity="0.2"></circle><circle cx="137" cy="108" r="2" transform="rotate(-90 137 108)" fill="#fff" fill-opacity="0.2"></circle><circle cx="137" cy="100" r="2" transform="rotate(-90 137 100)" fill="#fff" fill-opacity="0.2"></circle><circle cx="137" cy="92" r="2" transform="rotate(-90 137 92)" fill="#fff" fill-opacity="0.2"></circle><circle cx="137" cy="84" r="2" transform="rotate(-90 137 84)" fill="#fff" fill-opacity="0.2"></circle><circle cx="137" cy="76" r="2" transform="rotate(-90 137 76)" fill="#fff" fill-opacity="0.2"></circle><circle cx="137" cy="68" r="2" transform="rotate(-90 137 68)" fill="#fff" fill-opacity="0.2"></circle><circle cx="137" cy="60" r="2" transform="rotate(-90 137 60)" fill="#fff" fill-opacity="0.2"></circle><circle cx="145" cy="116" r="2" transform="rotate(-90 145 116)" fill="#fff" fill-opacity="0.2"></circle><circle cx="145" cy="108" r="2" transform="rotate(-90 145 108)" fill="#fff" fill-opacity="0.2"></circle><circle cx="145" cy="100" r="2" transform="rotate(-90 145 100)" fill="#fff" fill-opacity="0.2"></circle><circle cx="145" cy="92" r="2" transform="rotate(-90 145 92)" fill="#fff" fill-opacity="0.2"></circle><circle cx="145" cy="84" r="2" transform="rotate(-90 145 84)" fill="#fff" fill-opacity="0.2"></circle><circle cx="145" cy="76" r="2" transform="rotate(-90 145 76)" fill="#fff" fill-opacity="0.2"></circle><circle cx="145" cy="68" r="2" transform="rotate(-90 145 68)" fill="#fff" fill-opacity="0.2"></circle><circle cx="145" cy="60" r="2" transform="rotate(-90 145 60)" fill="#fff" fill-opacity="0.2"></circle><g clip-path="url(#account_svg__a)"><path d="M133.335 193.127c.108-8.511-5.841-26.222-14.54-37.376-8.699-11.154-22.513-19.405-32.368-16.153-9.228 3.037-8.377 15.096 2.688 23.222 11.064 8.125 27.682 18.356 32.421 32.251l10.079 17.022 1.72-18.966Z" fill="#E23F65"></path><path opacity="0.1" d="M133.335 193.127c.108-8.511-5.841-26.222-14.54-37.376-8.699-11.154-22.513-19.405-32.368-16.153-9.228 3.037-8.377 15.096 2.688 23.222 11.064 8.125 27.682 18.356 32.421 32.251l10.079 17.022 1.72-18.966Z" fill="#000"></path><path d="M133.827 204.782a.612.612 0 0 1-.364-.161.612.612 0 0 1-.191-.35c-5.375-29.125-28.579-53.027-42.581-58.411a.617.617 0 0 1-.395-.321.632.632 0 0 1 .116-.727.62.62 0 0 1 .475-.183.614.614 0 0 1 .252.067c14.271 5.491 37.922 29.787 43.351 59.351a.621.621 0 0 1-.268.636.622.622 0 0 1-.225.09l-.17.009Z" fill="#fff"></path><path d="M129.268 223.327c-1.308-4.802-7.06-12.766-16.431-19.405-10.374-7.337-23.561-10.813-26.545-16.466-3.583-6.791 2.177-13.098 12.901-11.647 10.724 1.452 29.43 16.359 32.189 38.451l-2.114 9.067Z" fill="#E23F65"></path><path d="M131.409 218.328a.63.63 0 0 1-.538-.412c-8.609-25.004-27.494-33.972-36.274-35.217a.622.622 0 0 1-.529-.699.619.619 0 0 1 .7-.528c9.71 1.379 28.497 10.517 37.286 36.032a.634.634 0 0 1-.386.797.669.669 0 0 1-.259.027Z" fill="#fff"></path><path d="M246.585 208.726a16.191 16.191 0 0 1 8.139 5.936 8.193 8.193 0 0 1 2.079 4.958c0 1.823-1.517 3.713-3.372 3.59a4.771 4.771 0 0 1-2.81-1.556c-1.911-1.823-3.732-4.157-6.363-4.446-1.506-.167-3.125.378-4.496-.278a3.35 3.35 0 0 1-1.44-1.612 3.309 3.309 0 0 1-.145-2.146 5.804 5.804 0 0 1 2.642-3.335 6.664 6.664 0 0 1 5.766-1.111Zm4.239-14.451c-.462 3.104 2.718 4.878 5.006 4.845 2.288-.032 4.4-1.2 6.347-2.347 4.499-2.617 9.185-5.408 11.913-9.735a8.28 8.28 0 0 0 1.452-4.326 4.343 4.343 0 0 0-.531-2.213 4.45 4.45 0 0 0-1.581-1.66c-1.628-.876-3.641-.367-5.368.282a36.687 36.687 0 0 0-13.475 8.826 12.545 12.545 0 0 0-3.763 6.382m-6.39-.595a9.087 9.087 0 0 0 4.082-1.816 9.577 9.577 0 0 0 2.801-3.583 17.62 17.62 0 0 0 1.349-9.117 28.984 28.984 0 0 0-2.901-10.453 9.873 9.873 0 0 0-2.473-3.418 4.218 4.218 0 0 0-1.84-.931 4.12 4.12 0 0 0-2.045.063c-1.927.69-2.773 2.994-3.286 5.054a72.312 72.312 0 0 0-1.884 11.043c-.289 2.995-.354 6.145.899 8.906 1.252 2.761 3.382 4.631 5.716 4.23" fill="#E23F65"></path><path d="M223.338 223.216c.341-.225.659-.484.95-.774l2.491-2.206a44.67 44.67 0 0 1 3.844-3.049 36.699 36.699 0 0 1 5.174-2.991 20.503 20.503 0 0 1 5.643-1.775 10.598 10.598 0 0 1 4.771.308 10.07 10.07 0 0 1 2.905 1.444c.307.269.64.506.994.705a6.293 6.293 0 0 0-.871-.864 9.284 9.284 0 0 0-2.928-1.627 10.537 10.537 0 0 0-4.927-.432 19.85 19.85 0 0 0-5.788 1.786 34.825 34.825 0 0 0-5.241 3.06 41.64 41.64 0 0 0-3.81 3.162 61.445 61.445 0 0 0-2.391 2.332 5.91 5.91 0 0 0-.816.921Z" fill="#fff"></path><path d="M225.346 221.208c.15-.11.288-.236.41-.375.278-.31.644-.685 1.11-1.105a174.42 174.42 0 0 1 4.062-4.175c3.463-3.48 7.403-7.014 13.13-11.863 5.383-4.551 11.742-9.753 16.193-12.846a94.871 94.871 0 0 1 2.73-1.878c.81-.541 1.509-1.016 2.097-1.369l1.321-.873c.159-.091.308-.198.444-.32a1.887 1.887 0 0 0-.488.243l-1.387.784c-.6.331-1.31.784-2.131 1.303-.822.52-1.776 1.105-2.786 1.823a179.684 179.684 0 0 0-15.283 11.675c-5.738 4.86-10.688 9.532-14.095 13.078a107.713 107.713 0 0 0-3.94 4.285l-1.021 1.215a2.227 2.227 0 0 0-.366.398Zm8.701-9.37c.401-.38.773-.787 1.115-1.22a44.439 44.439 0 0 0 2.722-3.602 57.616 57.616 0 0 0 3.447-5.754 53.603 53.603 0 0 0 3.347-7.504 41.027 41.027 0 0 0 2.755-14.588 19.58 19.58 0 0 0-.167-2.572c0-.377 0-.732-.123-1.109-.123-.376-.123-.598-.178-.864a11.704 11.704 0 0 0-.402-1.608c.301 2.02.476 4.056.524 6.097a42.988 42.988 0 0 1-2.878 14.411 60.64 60.64 0 0 1-3.279 7.46 65.515 65.515 0 0 1-3.347 5.765 57.965 57.965 0 0 1-2.588 3.68 9.94 9.94 0 0 0-.948 1.408Z" fill="#fff"></path><path d="M94.92 239.212c46.527 3.66 121.965 3.66 168.487 0 46.523-3.66 46.528-9.597 0-13.253-46.528-3.655-121.96-3.66-168.488 0-46.527 3.66-46.522 9.594 0 13.253Z" fill="#fff" fill-opacity="0.2"></path><path d="M205.133 219.495v-79.521h-1.058v79.521h1.058Z" fill="#E6E6E6"></path><path d="M237.339 139.974h-33.265v1.339h33.265v-1.339Z" fill="#E6E6E6"></path><path d="m130.879 110.731 14.551-69.307h16.063l-14.557 69.307h-16.057Z" fill="#fff"></path><path d="M223.517 229.514h-88.122a11.804 11.804 0 0 1-8.711-3.716 11.818 11.818 0 0 1-3.183-8.921L134.21 33.72a13.615 13.615 0 0 1 13.387-12.637h88.142a11.815 11.815 0 0 1 11.893 12.637L236.89 216.877a13.614 13.614 0 0 1-13.373 12.637Z" fill="#E23F65"></path><path opacity="0.8" d="M223.517 229.514h-88.122a11.804 11.804 0 0 1-8.711-3.716 11.818 11.818 0 0 1-3.183-8.921L134.21 33.72a13.615 13.615 0 0 1 13.387-12.637h88.142a11.815 11.815 0 0 1 11.893 12.637L236.89 216.877a13.614 13.614 0 0 1-13.373 12.637Z" fill="#fff"></path><path d="M222.995 225.846h-85.672a8.303 8.303 0 0 1-7.896-5.507 8.314 8.314 0 0 1-.464-3.368L139.672 34.61a9.573 9.573 0 0 1 9.371-8.882h85.672a8.305 8.305 0 0 1 8.36 8.882l-10.709 182.361a9.565 9.565 0 0 1-9.371 8.875Z" fill="#E23F65"></path><path d="M222.071 224.869h-85.672a8.322 8.322 0 0 1-3.334-.666 8.32 8.32 0 0 1-4.562-4.847 8.3 8.3 0 0 1-.463-3.369l10.709-182.36a9.567 9.567 0 0 1 9.37-8.883h85.672a8.302 8.302 0 0 1 7.896 5.514 8.315 8.315 0 0 1 .464 3.368l-10.709 182.361a9.571 9.571 0 0 1-9.371 8.882Z" fill="#fff"></path><path opacity="0.1" d="M219.569 218.089h-79.895a5.138 5.138 0 0 1-5.168-5.488l4.498-76.068a5.911 5.911 0 0 1 5.81-5.488h79.862a5.137 5.137 0 0 1 3.784 1.614 5.142 5.142 0 0 1 1.383 3.874l-4.464 76.068a5.912 5.912 0 0 1-5.81 5.488ZM201.825 38.271h-23.286a1.829 1.829 0 0 1-1.353-.576 1.84 1.84 0 0 1-.494-1.385 2.114 2.114 0 0 1 2.081-1.968h23.279a1.837 1.837 0 0 1 1.772 1.215c.086.241.121.498.102.753a2.108 2.108 0 0 1-2.101 1.961Zm9.264 73.416c14.338-13.924 15.317-36.174 2.186-49.696-13.131-13.522-35.4-13.195-49.738.729-14.339 13.924-15.318 36.174-2.187 49.696 13.131 13.522 35.4 13.195 49.739-.729Z" fill="#E23F65"></path><path d="M162.697 110.483a31.055 31.055 0 0 1-8.346-23.426h.669a30.42 30.42 0 0 0 8.165 22.924l-.488.502Zm57.575-23.138-.669-.04a32.114 32.114 0 0 0-.669-8.795l.669-.147c.64 2.948.865 5.972.669 8.982Zm-3.28-14.657a30.124 30.124 0 0 0-16.967-15.857l.235-.629a30.71 30.71 0 0 1 17.342 16.218l-.61.267Z" fill="#E23F65"></path><path d="M208.03 108.537c12.496-12.134 13.35-31.523 1.908-43.305-11.441-11.782-30.846-11.496-43.342.638-12.496 12.134-13.35 31.523-1.908 43.305s30.847 11.497 43.342-.638Z" fill="#E23F65"></path><path d="M188.335 67.092c-10.772.282-20.021 9.242-20.645 20-.624 10.758 7.612 19.26 18.384 18.978 10.772-.282 20.022-9.242 20.646-20 .624-10.758-7.612-19.26-18.385-18.978Zm-11.461 31.98c.941-1.776 6.153-3.625 9.822-3.721 3.669-.096 8.702 1.484 9.42 3.217-2.777 2.174-6.186 3.509-9.816 3.604-3.629.095-6.894-1.065-9.426-3.1Zm22.196-3.403c-2.594-3.318-9.299-4.29-12.148-4.216-2.849.075-9.687 1.402-12.675 4.866-1.916-2.647-2.849-5.926-2.654-9.33.498-8.594 7.91-15.774 16.516-16 8.606-.225 15.206 6.588 14.708 15.183-.206 3.547-1.605 6.833-3.747 9.497Zm-11.187-20.782c-3.786.1-7.007 3.22-7.226 7-.219 3.781 2.649 6.742 6.435 6.643 3.786-.1 7.006-3.22 7.226-7 .219-3.781-2.649-6.742-6.435-6.643Zm-.565 9.745c-1.62.042-2.852-1.23-2.758-2.847.094-1.617 1.477-2.957 3.097-3 1.62-.042 2.851 1.23 2.758 2.847-.094 1.617-1.477 2.957-3.097 3Z" fill="#fff"></path><path d="m176.886 94.112-.167.234c.053-.08.114-.154.174-.228l-.007-.006Zm9.512-5.776c.034-.154.061-.301.087-.448-.026.127-.053.294-.087.448Z" fill="#263238"></path><path opacity="0.2" d="M186.398 88.336c.034-.154.061-.301.087-.448-.026.127-.053.294-.087.448Z" fill="#000"></path><path d="M186.64 85.953Z" fill="#263238"></path><path opacity="0.2" d="M186.64 85.953Z" fill="#000"></path><path d="M224.314 33.981h9.431a1.03 1.03 0 0 0 1.011-.957.886.886 0 0 0-.241-.671.888.888 0 0 0-.656-.28h-9.438a1.032 1.032 0 0 0-1.01.95.885.885 0 0 0 .542.888.89.89 0 0 0 .361.07Zm-.194 3.286h9.431a1.031 1.031 0 0 0 1.01-.957.878.878 0 0 0-.238-.675.882.882 0 0 0-.659-.282h-9.43a1.032 1.032 0 0 0-1.018.957.91.91 0 0 0 .245.674.91.91 0 0 0 .659.283Zm-76.295 0h9.43a1.036 1.036 0 0 0 1.018-.957.898.898 0 0 0-.904-.957h-9.431a1.021 1.021 0 0 0-1.01.957.907.907 0 0 0 .24.674.896.896 0 0 0 .657.283Zm76.1 3.28h9.451a1.028 1.028 0 0 0 1.017-.957.894.894 0 0 0-.245-.674.89.89 0 0 0-.658-.283h-9.451a1.038 1.038 0 0 0-1.017.957.898.898 0 0 0 .543.885.9.9 0 0 0 .36.072Z" fill="#E23F65"></path><path d="M211.53 160.628h-57.052a7.72 7.72 0 0 1-7.778-8.259 8.903 8.903 0 0 1 8.748-8.259H212.5a7.72 7.72 0 0 1 7.778 8.259 8.9 8.9 0 0 1-8.748 8.259Zm-1.299 22.202h-57.059a7.734 7.734 0 0 1-5.693-2.435 7.75 7.75 0 0 1-2.084-5.831 8.902 8.902 0 0 1 8.748-8.24h57.059a7.728 7.728 0 0 1 7.346 5.126 7.716 7.716 0 0 1 .431 3.134 8.908 8.908 0 0 1-8.748 8.246Zm-1.305 22.194h-57.052a7.72 7.72 0 0 1-5.695-2.429 7.707 7.707 0 0 1-2.082-5.83 8.906 8.906 0 0 1 8.748-8.266h57.052a7.724 7.724 0 0 1 5.696 2.432 7.745 7.745 0 0 1 2.081 5.834 8.902 8.902 0 0 1-8.748 8.259Z" fill="#fff"></path><path d="M158.911 155.329c1.737-1.686 1.857-4.38.268-6.017-1.589-1.636-4.285-1.595-6.022.092s-1.857 4.381-.268 6.017c1.589 1.636 4.285 1.595 6.022-.092Zm-3.382 15.212.563 2.121a.544.544 0 0 0 .535.402h2.229a.576.576 0 0 1 .288 1.071l-1.881 1.339a.616.616 0 0 0-.254.669l.562 2.122a.62.62 0 0 1-.238.664.61.61 0 0 1-.706.005l-1.727-1.339a.58.58 0 0 0-.669 0l-1.881 1.339a.563.563 0 0 1-.863-.669l.81-2.122a.565.565 0 0 0-.174-.669l-1.727-1.339a.606.606 0 0 1 .056-.967.613.613 0 0 1 .352-.104h2.229a.623.623 0 0 0 .582-.402l.783-2.121a.592.592 0 0 1 .566-.425.592.592 0 0 1 .565.425Zm1.546 23.975-.355 5.957a.994.994 0 0 1-.984.923h-5.214a.865.865 0 0 1-.81-.937l.435-7.416a.994.994 0 0 1 .978-.93h3.748l2.202 2.403Z" fill="#E23F65"></path><path d="m154.839 192.126 2.256 2.39h-1.466a.864.864 0 0 1-.87-.924l.08-1.466Zm-.595-1.639-.094 1.599-.087 1.466a1.596 1.596 0 0 0 .422 1.171 1.55 1.55 0 0 0 1.144.489h3.066l-1.098-1.171-2.249-2.39-1.104-1.164Z" fill="#fff"></path><path opacity="0.2" d="M209.615 151.492H166.92a1.242 1.242 0 0 1-.503-.101 1.244 1.244 0 0 1-.69-.73 1.25 1.25 0 0 1-.072-.507 1.452 1.452 0 0 1 1.426-1.339h42.688a1.26 1.26 0 0 1 1.265 1.339 1.441 1.441 0 0 1-1.419 1.338Zm-8.091 4.445h-34.858a1.277 1.277 0 0 1-.926-.394 1.261 1.261 0 0 1-.345-.945 1.45 1.45 0 0 1 1.425-1.339h34.858a1.264 1.264 0 0 1 1.199.829c.059.163.084.337.073.51a1.46 1.46 0 0 1-1.426 1.339Zm6.686 19.503h-11.78a1.444 1.444 0 0 0-1.425 1.339 1.253 1.253 0 0 0 .762 1.238c.159.068.33.102.503.101h11.779a1.445 1.445 0 0 0 1.426-1.339 1.257 1.257 0 0 0-1.265-1.339Zm-18.666 0h-24.022a1.444 1.444 0 0 0-1.425 1.339 1.258 1.258 0 0 0 .339.947 1.266 1.266 0 0 0 .926.392h24.028a1.453 1.453 0 0 0 1.426-1.339 1.257 1.257 0 0 0-1.272-1.339Zm11.096-4.43h-34.864a1.446 1.446 0 0 0-1.426 1.338 1.272 1.272 0 0 0 .341.945 1.272 1.272 0 0 0 .924.394h34.858a1.453 1.453 0 0 0 1.426-1.339 1.262 1.262 0 0 0-.758-1.236 1.247 1.247 0 0 0-.501-.102Zm6.266 26.625h-42.689a1.46 1.46 0 0 0-1.425 1.338 1.264 1.264 0 0 0 .343.947 1.261 1.261 0 0 0 .928.392h42.689a1.444 1.444 0 0 0 1.419-1.339 1.257 1.257 0 0 0-1.265-1.338Zm-7.571-4.438h-34.858a1.453 1.453 0 0 0-1.426 1.339 1.257 1.257 0 0 0 .762 1.238c.159.068.331.102.503.101h34.865a1.449 1.449 0 0 0 1.419-1.339 1.272 1.272 0 0 0-.341-.945 1.272 1.272 0 0 0-.924-.394Z" fill="#E23F65"></path></g><defs><clipPath id="account_svg__a"><path fill="#fff" transform="translate(38)" d="M0 0h274v274H0z"></path></clipPath></defs></svg>