<svg width="24" height="24" viewBox="0 0 24 24" fill="#181E45" xmlns="http://www.w3.org/2000/svg"><path d="M15.495 14.435a.391.391 0 0 0-.39.392v2.705c0 1.08-.875 1.96-1.95 1.96H8.944a.391.391 0 0 0-.39.391v.78l-.932-.936a.39.39 0 0 0-.357-.236H4.73a1.957 1.957 0 0 1-1.95-1.96v-6.036c0-1.08.875-1.96 1.95-1.96h3.94a.391.391 0 0 0 0-.784H4.73A2.74 2.74 0 0 0 2 11.496v6.037a2.74 2.74 0 0 0 2.73 2.743h2.335l1.602 1.61a.389.389 0 0 0 .666-.277v-1.333h3.822a2.74 2.74 0 0 0 2.73-2.743v-2.705a.391.391 0 0 0-.39-.392Z" class="faqIcon_svg__stroke-color"></path><path fill-rule="evenodd" clip-rule="evenodd" d="M15.327 2h.99C19.45 2 22 4.546 22 7.675c0 .907-.207 1.773-.617 2.575a5.731 5.731 0 0 1-1.494 1.84v2.258a.39.39 0 0 1-.668.277l-1.462-1.46a5.68 5.68 0 0 1-1.442.185h-.99c-3.134 0-5.683-2.546-5.683-5.675 0-3.13 2.55-5.675 5.683-5.675Zm3.78 9.899a.39.39 0 0 1 .155-.312 4.856 4.856 0 0 0 1.956-3.912 4.903 4.903 0 0 0-4.901-4.894h-.99a4.903 4.903 0 0 0-4.901 4.894 4.903 4.903 0 0 0 4.901 4.894h.99c.49 0 .976-.072 1.441-.215a.391.391 0 0 1 .392.097l.957.955V11.9Z"></path><path d="m21.383 10.25-.223-.114.223.114Zm-1.494 1.84-.157-.195-.093.075v.12h.25Zm-.242 2.62-.095-.232.095.231Zm-.426-.085-.176.177.176-.177Zm-1.462-1.46.177-.176-.102-.102-.138.037.063.242Zm1.503-1.578-.15-.2.15.2Zm-1.504.767.074.24-.074-.24Zm.392.097.176-.177-.176.177Zm.957.955-.177.177.427.426v-.603h-.25ZM16.317 1.75h-.99v.5h.99v-.5Zm5.933 5.925c0-3.268-2.662-5.925-5.933-5.925v.5c2.996 0 5.433 2.434 5.433 5.425h.5Zm-.645 2.689a5.858 5.858 0 0 0 .645-2.689h-.5c0 .867-.198 1.695-.59 2.462l.445.227Zm-1.56 1.92a5.983 5.983 0 0 0 1.56-1.92l-.445-.228a5.482 5.482 0 0 1-1.428 1.759l.314.389Zm.094 2.064V12.09h-.5v2.26h.5Zm-.396.592a.64.64 0 0 0 .396-.592h-.5a.14.14 0 0 1-.087.13l.19.462Zm-.245.049a.642.642 0 0 0 .245-.049l-.191-.462a.14.14 0 0 1-.054.01v.5Zm-.453-.187a.642.642 0 0 0 .453.187v-.5a.141.141 0 0 1-.1-.041l-.353.354Zm-1.462-1.46 1.462 1.46.353-.354-1.462-1.46-.353.354Zm-1.266.258a5.95 5.95 0 0 0 1.505-.192l-.126-.484a5.45 5.45 0 0 1-1.38.176v.5Zm-.99 0h.99v-.5h-.99v.5ZM9.394 7.675c0 3.268 2.662 5.925 5.933 5.925v-.5c-2.996 0-5.433-2.434-5.433-5.425h-.5Zm5.933-5.925c-3.271 0-5.933 2.657-5.933 5.925h.5c0-2.99 2.437-5.425 5.433-5.425v-.5Zm3.785 9.637a.64.64 0 0 0-.255.512h.5a.14.14 0 0 1 .056-.112l-.301-.4Zm1.856-3.712a4.606 4.606 0 0 1-1.856 3.712l.3.4a5.106 5.106 0 0 0 2.056-4.112h-.5Zm-4.651-4.644a4.653 4.653 0 0 1 4.651 4.644h.5a5.153 5.153 0 0 0-5.151-5.144v.5Zm-.99 0h.99v-.5h-.99v.5Zm-4.651 4.644a4.653 4.653 0 0 1 4.651-4.644v-.5a5.153 5.153 0 0 0-5.151 5.144h.5Zm4.651 4.644a4.653 4.653 0 0 1-4.651-4.644h-.5a5.153 5.153 0 0 0 5.151 5.144v-.5Zm.99 0h-.99v.5h.99v-.5Zm1.368-.204a4.659 4.659 0 0 1-1.368.204v.5a5.16 5.16 0 0 0 1.515-.226l-.147-.478Zm.188-.028a.644.644 0 0 0-.188.028l.147.478a.142.142 0 0 1 .041-.006v-.5Zm.453.187a.641.641 0 0 0-.453-.187v.5a.14.14 0 0 1 .1.041l.353-.354Zm.957.955-.957-.955-.353.354.957.955.353-.354Zm-.426-1.33v1.507h.5V11.9h-.5Z"></path><path d="M17.538 6.222a1.664 1.664 0 0 0-1.536-1.543 1.639 1.639 0 0 0-1.246.444 1.673 1.673 0 0 0-.527 1.216.392.392 0 1 0 .783 0c0-.246.098-.474.277-.642a.865.865 0 0 1 .66-.234c.43.03.778.38.808.813a.873.873 0 0 1-.68.92.743.743 0 0 0-.583.728v.944a.392.392 0 1 0 .783 0v-.912a1.654 1.654 0 0 0 1.26-1.734Zm-1.383 3.915a.385.385 0 0 0-.54 0 .385.385 0 0 0 0 .541.385.385 0 0 0 .54 0 .385.385 0 0 0 0-.54Z" class="faqIcon_svg__stroke-color"></path><path d="M12.691 14.102H4.43a.387.387 0 0 0-.392.382c0 .211.175.382.392.382h8.261a.387.387 0 0 0 .392-.382.387.387 0 0 0-.392-.382Z"></path><path d="M12.97 16.38a.385.385 0 0 0-.54 0 .385.385 0 0 0 0 .54.385.385 0 0 0 .54 0 .384.384 0 0 0 0-.54Z" class="faqIcon_svg__stroke-color"></path><path d="M11.162 16.267H4.43a.387.387 0 0 0-.392.383c0 .21.176.382.392.382h6.732a.387.387 0 0 0 .392-.382.387.387 0 0 0-.392-.383Zm-.891-4.331H4.557a.387.387 0 0 0-.391.383c0 .21.175.382.391.382h5.714a.387.387 0 0 0 .392-.383.387.387 0 0 0-.392-.382Z"></path></svg>