<svg viewBox="0 0 24 24" fill="none" xmlns="http://www.w3.org/2000/svg"><path fill-rule="evenodd" clip-rule="evenodd" d="M3.38 14.835a4.09 4.09 0 0 1 2.893-1.199h6.545a4.091 4.091 0 0 1 4.091 4.091v1.637a.818.818 0 0 1-1.636 0v-1.637a2.455 2.455 0 0 0-2.455-2.454H6.273a2.455 2.455 0 0 0-2.455 2.454v1.637a.818.818 0 1 1-1.636 0v-1.637a4.09 4.09 0 0 1 1.198-2.892Zm6.166-9.38a2.455 2.455 0 1 0 0 4.909 2.455 2.455 0 0 0 0-4.91ZM5.455 7.909a4.09 4.09 0 1 1 8.181 0 4.09 4.09 0 0 1-8.181 0Zm12.298 6.447c.113-.437.56-.7.997-.587a4.091 4.091 0 0 1 3.068 3.958v1.637a.818.818 0 0 1-1.636 0v-1.636a2.455 2.455 0 0 0-1.841-2.375.818.818 0 0 1-.588-.997ZM14.48 4.54a.818.818 0 0 1 .996-.59 4.091 4.091 0 0 1 0 7.926.818.818 0 1 1-.406-1.585 2.455 2.455 0 0 0 0-4.756.818.818 0 0 1-.59-.995Z" fill="#181E45"></path></svg>