<svg viewBox="0 0 24 24" fill="#181E45" xmlns="http://www.w3.org/2000/svg"><path fill-rule="evenodd" clip-rule="evenodd" d="M10.366 8.817a4.817 4.817 0 1 1 9.634 0 4.817 4.817 0 0 1-9.634 0Zm.567 0a4.25 4.25 0 1 0 8.5 0 4.25 4.25 0 0 0-8.5 0Z"></path><path d="M10.366 8.817h-.2.2Zm4.817 4.816v.2-.2Zm-4.25-4.816h-.2.2Zm4.25-4.25v-.2.2Zm0-.767a5.017 5.017 0 0 0-5.017 5.017h.4A4.617 4.617 0 0 1 15.183 4.2v-.4ZM20.2 8.817A5.017 5.017 0 0 0 15.183 3.8v.4a4.617 4.617 0 0 1 4.616 4.617h.4Zm-5.017 5.016A5.017 5.017 0 0 0 20.2 8.817h-.4a4.617 4.617 0 0 1-4.617 4.616v.4Zm-5.017-5.016a5.022 5.022 0 0 0 5.017 5.016v-.4a4.622 4.622 0 0 1-4.617-4.617h-.4Zm5.017 4.05a4.05 4.05 0 0 1-4.05-4.05h-.4a4.45 4.45 0 0 0 4.45 4.45v-.4Zm4.05-4.05a4.05 4.05 0 0 1-4.05 4.05v.4a4.45 4.45 0 0 0 4.45-4.45h-.4Zm-4.05-4.05a4.05 4.05 0 0 1 4.05 4.05h.4a4.45 4.45 0 0 0-4.45-4.45v.4Zm-4.05 4.05a4.055 4.055 0 0 1 4.05-4.05v-.4a4.455 4.455 0 0 0-4.45 4.45h.4Z"></path><path fill-rule="evenodd" clip-rule="evenodd" d="M3 16.183a4.817 4.817 0 1 1 9.633 0 4.817 4.817 0 0 1-9.633 0Zm.567 0a4.25 4.25 0 1 0 8.5 0 4.25 4.25 0 0 0-8.5 0Z"></path><path d="M3 16.183h-.2.2ZM7.817 21v.2-.2Zm-4.25-4.817h-.2.2Zm4.25-4.25v-.2.2Zm0-.766A5.017 5.017 0 0 0 2.8 16.183h.4a4.617 4.617 0 0 1 4.617-4.616v-.4Zm5.016 5.016a5.017 5.017 0 0 0-5.016-5.016v.4a4.617 4.617 0 0 1 4.616 4.616h.4ZM7.817 21.2a5.017 5.017 0 0 0 5.016-5.017h-.4A4.617 4.617 0 0 1 7.817 20.8v.4ZM2.8 16.184A5.022 5.022 0 0 0 7.816 21.2v-.4A4.622 4.622 0 0 1 3.2 16.183h-.4Zm5.017 4.05a4.05 4.05 0 0 1-4.05-4.05h-.4a4.45 4.45 0 0 0 4.45 4.45v-.4Zm4.05-4.05a4.05 4.05 0 0 1-4.05 4.05v.4a4.45 4.45 0 0 0 4.45-4.45h-.4Zm-4.05-4.05a4.05 4.05 0 0 1 4.05 4.05h.4a4.45 4.45 0 0 0-4.45-4.45v.4Zm-4.05 4.05a4.055 4.055 0 0 1 4.05-4.05v-.4a4.455 4.455 0 0 0-4.45 4.45h.4Zm4.616-.284H7.25a.567.567 0 1 1 0-1.133h1.133c.313 0 .567.253.567.566h.566a1.133 1.133 0 0 0-.85-1.093v-.607H8.1v.567h-.567v-.567h-.567v.607a1.131 1.131 0 0 0 .284 2.227h1.133a.567.567 0 1 1 0 1.133H7.25a.567.567 0 0 1-.567-.567h-.567c.002.515.351.965.85 1.093v.607h.567v-.566H8.1v.566h.566v-.607a1.131 1.131 0 0 0-.283-2.226Z"></path><path d="M4.134 16.183H4.7a3.12 3.12 0 0 1 3.117-3.116V12.5a3.688 3.688 0 0 0-3.683 3.683Zm6.799 0A3.12 3.12 0 0 1 7.816 19.3v.567a3.688 3.688 0 0 0 3.684-3.684h-.567Z" class="exchangeIcon_svg__stroke-color"></path><path fill-rule="evenodd" clip-rule="evenodd" d="M16.848 9.386a1.129 1.129 0 0 0-.35-.57 1.13 1.13 0 0 0-.465-1.942v-.607h-.566v.566H14.9v-.566h-.567v.566h-.566a.283.283 0 0 0-.284.284v3.4c0 .156.127.283.284.283h.566v.567h.567V10.8h.567v.567h.566v-.607c.605-.155.97-.77.815-1.374Zm-2.798.847V9.1h1.7a.567.567 0 0 1 0 1.133h-1.7Zm0-2.833v1.133h1.7a.567.567 0 0 0 0-1.133h-1.7Z"></path><path d="m16.499 8.817-.132-.15-.171.15.171.15.132-.15Zm.35.57.193-.05-.194.05Zm-.246-2.164-.15.132.15-.132Zm-.57-.35h-.2v.156l.15.038.05-.193Zm0-.606h.2v-.2h-.2v.2Zm-.566 0v-.2h-.2v.2h.2Zm0 .566v.2h.2v-.2h-.2Zm-.567 0h-.2v.2h.2v-.2Zm0-.566h.2v-.2h-.2v.2Zm-.567 0v-.2h-.2v.2h.2Zm0 .566v.2h.2v-.2h-.2Zm0 3.967h.2v-.2h-.2v.2Zm0 .567h-.2v.2h.2v-.2Zm.567 0v.2h.2v-.2h-.2Zm0-.567v-.2h-.2v.2h.2Zm.567 0h.2v-.2h-.2v.2Zm0 .567h-.2v.2h.2v-.2Zm.566 0v.2h.2v-.2h-.2Zm0-.607-.05-.194-.15.038v.156h.2ZM14.05 9.1v-.2h-.2v.2h.2Zm0 1.133h-.2v.2h.2v-.2Zm0-1.7h-.2v.2h.2v-.2Zm0-1.133v-.2h-.2v.2h.2Zm2.317 1.567c.14.124.241.287.287.469l.388-.1a1.329 1.329 0 0 0-.411-.67l-.264.301Zm.085-1.612a.93.93 0 0 1-.085 1.311l.264.301a1.33 1.33 0 0 0 .122-1.876l-.3.264Zm-.468-.288a.93.93 0 0 1 .469.288l.3-.264a1.33 1.33 0 0 0-.67-.411l-.1.387Zm-.15-.8v.607h.4v-.607h-.4Zm-.367.2h.566v-.4h-.566v.4Zm.2.366v-.566h-.4v.566h.4Zm-.767.2h.567v-.4H14.9v.4Zm-.2-.766v.566h.4v-.566h-.4Zm-.367.2h.567v-.4h-.567v.4Zm.2.366v-.566h-.4v.566h.4Zm-.766.2h.566v-.4h-.566v.4Zm-.084.084c0-.046.038-.084.084-.084v-.4a.483.483 0 0 0-.484.484h.4Zm0 3.4v-3.4h-.4v3.4h.4Zm.084.083a.083.083 0 0 1-.084-.083h-.4c0 .267.217.483.484.483v-.4Zm.566 0h-.566v.4h.566v-.4Zm.2.767V10.8h-.4v.567h.4Zm.367-.2h-.567v.4h.567v-.4Zm-.2-.367v.567h.4V10.8h-.4Zm.767-.2H14.9v.4h.567v-.4Zm.2.767V10.8h-.4v.567h.4Zm.366-.2h-.566v.4h.566v-.4Zm-.2-.407v.607h.4v-.607h-.4Zm.821-1.324a.93.93 0 0 1-.67 1.13l.099.387a1.33 1.33 0 0 0 .959-1.616l-.388.099ZM13.85 9.1v1.133h.4V9.1h-.4Zm1.9-.2h-1.7v.4h1.7v-.4Zm.767.767a.767.767 0 0 0-.767-.767v.4c.203 0 .367.164.367.367h.4Zm-.767.766a.767.767 0 0 0 .767-.766h-.4a.367.367 0 0 1-.367.366v.4Zm-1.7 0h1.7v-.4h-1.7v.4Zm.2-1.9V7.4h-.4v1.133h.4Zm1.5-.2h-1.7v.4h1.7v-.4Zm.367-.366a.367.367 0 0 1-.367.366v.4a.767.767 0 0 0 .767-.766h-.4ZM15.75 7.6c.203 0 .367.164.367.367h.4a.767.767 0 0 0-.767-.767v.4Zm-1.7 0h1.7v-.4h-1.7v.4Z"></path><path fill-rule="evenodd" clip-rule="evenodd" d="M8.383 5.417H9.8c.156 0 .283.127.283.283v1.133a.283.283 0 0 1-.283.284H8.383A2.27 2.27 0 0 0 6.134 9.1h.55a.283.283 0 0 1 .217.465l-1.417 1.7a.283.283 0 0 1-.436 0l-1.416-1.7A.283.283 0 0 1 3.85 9.1h.576a3.972 3.972 0 0 1 3.957-3.683Zm0 1.133h1.134v-.567H8.383a3.404 3.404 0 0 0-3.4 3.4.283.283 0 0 1-.283.284h-.245l.812.974.811-.974h-.245a.283.283 0 0 1-.283-.284A2.836 2.836 0 0 1 8.383 6.55Z"></path><path d="M8.383 5.417v-.2.2Zm0 1.7v-.2.2ZM6.134 9.1l-.198-.025-.029.225h.227v-.2Zm.55 0v.2-.2Zm.18.066.129-.154-.128.154Zm.037.399.154.128-.154-.128Zm-1.417 1.7-.153-.128.153.128Zm-.036.036-.128-.153.128.153Zm-.4-.036.155-.128-.154.128Zm-1.416-1.7-.154.128.154-.128Zm-.066-.182h-.2.2ZM3.85 9.1v.2-.2Zm.576 0v.2h.186l.014-.185-.2-.015Zm5.09-2.55v.2h.2v-.2h-.2Zm-1.133 0v-.2.2Zm1.134-.567h.2v-.2h-.2v.2Zm-1.134 0v-.2.2Zm-3.4 3.4h-.2.2Zm-.528.284v-.2h-.427l.273.328.154-.128Zm.812.974-.154.128.154.184.153-.184-.153-.128Zm.811-.974.154.128.273-.328h-.427v.2Zm-.528-.284h-.2.2ZM9.8 5.217H8.383v.4H9.8v-.4Zm.483.483a.483.483 0 0 0-.483-.483v.4c.046 0 .083.037.083.083h.4Zm0 1.133V5.7h-.4v1.133h.4Zm-.483.484a.483.483 0 0 0 .483-.484h-.4a.083.083 0 0 1-.083.084v.4Zm-1.417 0H9.8v-.4H8.383v.4Zm-2.05 1.808a2.07 2.07 0 0 1 2.05-1.808v-.4a2.47 2.47 0 0 0-2.447 2.158l.397.05Zm.35-.225h-.549v.4h.55v-.4Zm.31.112a.483.483 0 0 0-.31-.112v.4c.02 0 .039.007.054.02l.256-.308Zm.062.68a.483.483 0 0 0-.062-.68l-.256.307c.035.03.04.082.01.118l.308.256Zm-1.417 1.7 1.417-1.7-.308-.255-1.416 1.7.307.256Zm-.063.063a.48.48 0 0 0 .063-.063l-.307-.255a.078.078 0 0 1-.011.01l.255.308Zm-.68-.063c.17.206.475.234.68.063l-.255-.307a.083.083 0 0 1-.117-.011l-.308.255Zm-1.417-1.7 1.417 1.7.307-.255-1.416-1.7-.308.256Zm-.112-.309c0 .113.04.223.112.31l.308-.256a.083.083 0 0 1-.02-.054h-.4ZM3.85 8.9a.483.483 0 0 0-.484.483h.4c0-.046.038-.083.084-.083v-.4Zm.576 0H3.85v.4h.576v-.4Zm3.957-3.683a4.172 4.172 0 0 0-4.156 3.868l.399.03a3.772 3.772 0 0 1 3.758-3.498l-.001-.4ZM9.517 6.35H8.383v.4h1.134v-.4Zm-.2-.367v.567h.4v-.567h-.4Zm-.934.2h1.134v-.4H8.383v.4Zm-3.2 3.2a3.204 3.204 0 0 1 3.2-3.2v-.4a3.604 3.604 0 0 0-3.6 3.6h.4Zm-.483.484a.483.483 0 0 0 .483-.484h-.4a.083.083 0 0 1-.083.084v.4Zm-.245 0H4.7v-.4h-.245v.4Zm.965.646-.812-.974-.307.256.812.974.307-.256Zm.505-.974-.812.974.307.256.812-.974-.307-.256Zm-.092.328h.245v-.4h-.245v.4Zm-.483-.484c0 .267.216.484.483.484v-.4a.083.083 0 0 1-.083-.084h-.4ZM8.383 6.35A3.036 3.036 0 0 0 5.35 9.383h.4A2.636 2.636 0 0 1 8.383 6.75v-.4Z"></path><path fill-rule="evenodd" clip-rule="evenodd" d="m17.951 14.019 1.417 1.7a.283.283 0 0 1-.218.464h-.576a3.972 3.972 0 0 1-3.957 3.684H13.2a.283.283 0 0 1-.283-.284V18.45c0-.156.127-.283.283-.283h1.417a2.27 2.27 0 0 0 2.249-1.984h-.549a.283.283 0 0 1-.218-.464l1.417-1.7a.293.293 0 0 1 .436 0Zm.066 1.881c0-.157.127-.283.283-.283h.245l-.811-.974-.812.974h.245c.156 0 .283.126.283.283a2.836 2.836 0 0 1-2.833 2.833h-1.133v.567h1.133a3.404 3.404 0 0 0 3.4-3.4Z"></path><path d="m19.368 15.719.154-.128-.154.128Zm-1.416-1.7.153-.129-.005-.005-.149.134Zm1.482 1.881h.2-.2Zm-.284.283v-.2.2Zm-.576 0v-.2h-.186l-.014.186.2.014Zm-3.957 3.684v.2-.2Zm0-1.7v.2-.2Zm2.249-1.984.198.026.029-.226h-.227v.2Zm-.549 0v-.2.2Zm-.181-.065-.128.153.128-.153Zm-.037-.4-.154-.127.154.128Zm1.417-1.7-.149-.134-.005.007.154.128Zm.021-.02-.134-.149.134.149Zm.48 1.902h.2-.2Zm.528-.283v.2h.427l-.273-.328-.154.128Zm-.811-.974.153-.129-.153-.184-.154.184.154.129Zm-.812.974-.154-.128-.273.328h.427v-.2Zm.528.283h.2-.2Zm-2.833 2.833v.2-.2Zm-1.133 0v-.2h-.2v.2h.2Zm0 .567h-.2v.2h.2v-.2Zm1.133 0v.2-.2Zm4.905-3.71-1.417-1.7-.307.257 1.417 1.7.307-.256Zm.112.31a.483.483 0 0 0-.112-.31l-.307.257a.086.086 0 0 1 .019.053h.4Zm-.484.483a.483.483 0 0 0 .484-.483h-.4a.083.083 0 0 1-.084.083v.4Zm-.576 0h.576v-.4h-.576v.4Zm-3.957 3.684a4.172 4.172 0 0 0 4.156-3.87l-.399-.028a3.772 3.772 0 0 1-3.757 3.498v.4Zm-1.417 0h1.417v-.4H13.2v.4Zm-.483-.484c0 .267.216.484.483.484v-.4a.083.083 0 0 1-.083-.084h-.4Zm0-1.133v1.133h.4V18.45h-.4Zm.483-.483a.483.483 0 0 0-.483.483h.4c0-.046.037-.083.083-.083v-.4Zm1.417 0H13.2v.4h1.417v-.4Zm2.05-1.809a2.07 2.07 0 0 1-2.05 1.809v.4a2.47 2.47 0 0 0 2.447-2.158l-.397-.05Zm-.35.225h.549v-.4h-.549v.4Zm-.31-.112a.483.483 0 0 0 .31.112v-.4a.084.084 0 0 1-.054-.019l-.256.307Zm-.062-.68a.483.483 0 0 0 .063.68l.256-.307a.083.083 0 0 1-.011-.117l-.308-.256Zm1.417-1.7-1.416 1.7.307.256 1.416-1.7-.307-.256Zm.04-.042a.514.514 0 0 0-.035.035l.297.269a.116.116 0 0 1 .007-.007l-.268-.297Zm.698.036a.494.494 0 0 0-.697-.036l.268.297a.093.093 0 0 1 .132.007l.297-.268Zm.2 1.532a.483.483 0 0 0-.483.483h.4c0-.046.037-.083.083-.083v-.4Zm.245 0H18.3v.4h.245v-.4Zm-.965-.646.812.974.307-.256-.812-.975-.307.257Zm-.504.974.811-.974-.307-.257-.812.975.308.256Zm.091-.328h-.245v.4h.245v-.4Zm.483.483a.483.483 0 0 0-.483-.483v.4c.046 0 .083.037.083.083h.4Zm-3.033 3.033A3.036 3.036 0 0 0 17.65 15.9h-.4a2.636 2.636 0 0 1-2.633 2.633v.4Zm-1.133 0h1.133v-.4h-1.133v.4Zm.2.367v-.567h-.4v.567h.4Zm.933-.2h-1.133v.4h1.133v-.4Zm3.2-3.2a3.204 3.204 0 0 1-3.2 3.2v.4a3.604 3.604 0 0 0 3.6-3.6h-.4Z"></path><path d="M11.5 8.817h.567A3.12 3.12 0 0 1 15.183 5.7v-.567A3.688 3.688 0 0 0 11.5 8.817Zm6.8 0a3.12 3.12 0 0 1-3.116 3.116v.567a3.687 3.687 0 0 0 3.683-3.683H18.3Z" class="exchangeIcon_svg__stroke-color"></path></svg>