<svg width="47" height="47" viewBox="0 0 47 47" fill="none" xmlns="http://www.w3.org/2000/svg"><path d="M40.513 10.354a21.563 21.563 0 0 1 2.577 4.275L23.505 29.067l-8.185-5.131v-6.173l8.185 5.13 17.008-12.539Z" fill="#21A038"></path><path d="M6.967 23.5c0-.277.007-.552.02-.826l-4.96-.243a21.442 21.442 0 0 0 6.27 16.27l3.519-3.517A16.476 16.476 0 0 1 6.967 23.5Z" fill="url(#18_svg__a)"></path><path d="M23.5 6.966c.278 0 .553.01.826.024l.248-4.963a22.632 22.632 0 0 0-1.073-.025A21.44 21.44 0 0 0 8.297 8.298l3.519 3.519A16.475 16.475 0 0 1 23.5 6.966Z" fill="url(#18_svg__b)"></path><path d="M23.5 40.034c-.276 0-.551 0-.826-.022l-.249 4.96a21.428 21.428 0 0 0 16.27-6.27l-3.511-3.517a16.484 16.484 0 0 1-11.683 4.85Z" fill="url(#18_svg__c)"></path><path d="M32.82 9.851 37 6.77A21.403 21.403 0 0 0 23.495 2v4.966a16.45 16.45 0 0 1 9.327 2.885Z" fill="url(#18_svg__d)"></path><path d="M45 23.5a21.63 21.63 0 0 0-.338-3.853l-4.627 3.41v.443a16.49 16.49 0 0 1-5.447 12.254l3.338 3.69A21.445 21.445 0 0 0 45 23.5Z" fill="#21A038"></path><path d="M23.5 40.034a16.498 16.498 0 0 1-12.255-5.446l-3.687 3.336A21.443 21.443 0 0 0 23.501 45v-4.966Z" fill="url(#18_svg__e)"></path><path d="m12.414 11.246-3.337-3.69A21.443 21.443 0 0 0 2 23.5h4.967a16.493 16.493 0 0 1 5.447-12.254Z" fill="url(#18_svg__f)"></path><defs><linearGradient id="18_svg__a" x1="9.302" y1="38.081" x2="3.875" y2="22.394" gradientUnits="userSpaceOnUse"><stop offset="0.14" stop-color="#F1E813"></stop><stop offset="0.3" stop-color="#E6E418"></stop><stop offset="0.58" stop-color="#C9DA26"></stop><stop offset="0.89" stop-color="#A2CC39"></stop></linearGradient><linearGradient id="18_svg__b" x1="9.716" y1="9.176" x2="23.693" y2="3.85" gradientUnits="userSpaceOnUse"><stop offset="0.06" stop-color="#0FA7DF"></stop><stop offset="0.54" stop-color="#0098F8"></stop><stop offset="0.92" stop-color="#0290EA"></stop></linearGradient><linearGradient id="18_svg__c" x1="22.098" y1="42.003" x2="37.904" y2="38.432" gradientUnits="userSpaceOnUse"><stop offset="0.12" stop-color="#A2CC39"></stop><stop offset="0.28" stop-color="#86C239"></stop><stop offset="0.87" stop-color="#219F38"></stop></linearGradient><linearGradient id="18_svg__d" x1="22.461" y1="3.663" x2="35.974" y2="7.833" gradientUnits="userSpaceOnUse"><stop offset="0.06" stop-color="#0290EA"></stop><stop offset="0.79" stop-color="#0C89CA"></stop></linearGradient><linearGradient id="18_svg__e" x1="8.804" y1="37.319" x2="23.513" y2="42.816" gradientUnits="userSpaceOnUse"><stop offset="0.13" stop-color="#F1E813"></stop><stop offset="0.3" stop-color="#EAE616"></stop><stop offset="0.53" stop-color="#D8DF1F"></stop><stop offset="0.8" stop-color="#BAD52D"></stop><stop offset="0.98" stop-color="#A2CC39"></stop></linearGradient><linearGradient id="18_svg__f" x1="3.85" y1="24.101" x2="9.755" y2="8.742" gradientUnits="userSpaceOnUse"><stop offset="0.07" stop-color="#A2CC39"></stop><stop offset="0.26" stop-color="#81C45E"></stop><stop offset="0.92" stop-color="#0FA7DF"></stop></linearGradient></defs></svg>