<svg width="47" height="47" viewBox="0 0 47 47" fill="none" xmlns="http://www.w3.org/2000/svg"><path d="M23.5 1C11.074 1 1 11.074 1 23.5S11.075 46 23.5 46 46 35.929 46 23.5C46 11.072 35.927 1 23.5 1Z" fill="#53AE94"></path><path d="M20.723 20.502v-3.347H13.07v-5.1h20.842v5.1h-7.655v3.344c6.221.286 10.9 1.518 10.9 2.994 0 1.476-4.68 2.708-10.9 2.996V37.21h-5.535V26.488c-6.21-.287-10.878-1.518-10.878-2.992 0-1.475 4.668-2.706 10.878-2.993h.002Zm-.002 5.078v-.003c.156.01.959.058 2.745.058 1.429 0 2.433-.04 2.788-.059v.005c5.496-.244 9.598-1.2 9.598-2.346 0-1.145-4.103-2.101-9.598-2.345v3.737c-.36.025-1.39.086-2.811.086-1.707 0-2.565-.071-2.723-.086V20.89c-5.485.244-9.578 1.202-9.578 2.344 0 1.14 4.095 2.1 9.578 2.344" fill="#fff"></path></svg>