<svg width="47" height="47" viewBox="0 0 47 47" fill="none" xmlns="http://www.w3.org/2000/svg"><path d="M23.494 7.982c-1.712 0-2.994.564-3.27 1.226l3.27 1.288 3.276-1.294c-.276-.662-1.559-1.226-3.276-1.226m.043 34.153h-.043a13.405 13.405 0 0 1-3.153-.405l-.847 2.243c2.622.755 5.403.755 8.024 0l-.828-2.237c-1.032.26-2.09.395-3.153.405M29.8 39.91c-.898.448-1.832.821-2.791 1.115l.668 1.839c1.07-.28 2.11-.667 3.104-1.152l-1.392-.46.41-1.342Zm-12.588 0 .411 1.342-1.392.46c.992.484 2.03.87 3.098 1.152l.674-1.839a18.232 18.232 0 0 1-2.79-1.115Zm6.282-34.066a7.41 7.41 0 0 1 3.527.852c.105-.353.232-.7.38-1.036l-.368.043-.386.043-.166-.35-.49-1.035-.896.466-.35.177-.264-.257-.987-.987-.963.987-.264.251-.35-.178-.901-.465-.485 1.035-.166.35-.386-.043-.368-.043c.148.337.275.683.38 1.035a7.422 7.422 0 0 1 3.503-.845Zm19.703 11.999c.163.057.336.086.509.085a1.921 1.921 0 0 0 1.675-1.01 4.725 4.725 0 0 1-2.78-1.539 1.84 1.84 0 0 0-1.355-.613c-.4.008-.791.127-1.129.343 1.736.926 2.092 2.409 3.068 2.74m-39.874.079c.172 0 .342-.028.503-.085.994-.331 1.35-1.839 3.068-2.74a2.16 2.16 0 0 0-1.13-.343 1.841 1.841 0 0 0-1.36.613 4.724 4.724 0 0 1-2.774 1.538 1.92 1.92 0 0 0 1.675 1.011" fill="#fff"></path><path d="M43.663 23.866h.074c1.84 0 2.453-1.948 2.453-1.948h-.037a6.598 6.598 0 0 1-4.956-2.507c-1.258-1.6-2.294-3.003-4.33-3.554l-.203-.037-.043-.202c-.055-.313.16-.613.613-.92 2.816-1.838.902-4.185.902-4.185s-.803 1.875-2.6 1.875H35.4a3.803 3.803 0 0 1-.613-.06l-.331-.062a2.669 2.669 0 0 0-.724-2.672 3.742 3.742 0 0 0-2.718-1.128 2.978 2.978 0 0 0-.54.043c.614.81 1.074 2.157.356 2.99-.613.718-2.134.748-2.134 1.84 0 .453.423.974 1.177 1.445 2.276 1.434 4.534 3.334 5.478 5.877 1.172 3.175-.147 5.283-2.036 6.496.41.346.914.56 1.447.613h.503c.987.04 1.958-.26 2.748-.852a4.779 4.779 0 0 1-1.024 2.268 4.687 4.687 0 0 1-3.754 1.624 2.009 2.009 0 0 0 .687 1.513 3.8 3.8 0 0 0 1.632.613s-2.135.435-2.374 3.585a4.818 4.818 0 0 1-.565 2.298h.037c4.956 0 4.828-4.247 4.828-4.247a2.402 2.402 0 0 0 2.245 1.649c.281-.002.561-.037.834-.104a5.199 5.199 0 0 1 0-3.677 8.657 8.657 0 0 0 .497-3.064 2.785 2.785 0 0 0 2.325 1.017 2.327 2.327 0 0 0 1.981-1.042c-3.306-1.372-2.975-5.79-2.975-5.79.38.231.818.352 1.264.348l.012-.043Zm-1.006 4.664c-1.343-.662-2.196-2.42-2.398-3.064-.203 3.456-1.914 5.87-3.883 8.2a7.45 7.45 0 0 0-1.393 2.377 5.512 5.512 0 0 1 1.092-2.408c1.84-2.23 3.625-5.007 3.754-8.212a9.75 9.75 0 0 0-1.386-5.552 4.99 4.99 0 0 1-1.276 5.252s3.38-4.076-1.405-8.249c-1.901-1.587-3.987-2.567-5.06-3.266 3.87 1.262 5.765-.129 5.765-.129a4.705 4.705 0 0 1-3.772.901c.27.129.552.27.853.429 3.263 1.771 6.201 4.688 6.698 8.727v-.031c.76 3.965 2.454 4.982 2.454 4.982M11.452 32.9a3.8 3.8 0 0 0 1.613-.577 2.009 2.009 0 0 0 .718-1.507 4.702 4.702 0 0 1-3.76-1.624A4.808 4.808 0 0 1 8.93 26.93a4.26 4.26 0 0 0 2.748.851h.509a2.67 2.67 0 0 0 1.454-.612c-1.89-1.226-3.214-3.316-2.043-6.496.939-2.543 3.202-4.45 5.478-5.877.754-.472 1.178-1 1.178-1.447 0-1.066-1.515-1.096-2.135-1.838-.718-.833-.27-2.175.35-2.99a2.96 2.96 0 0 0-.54-.043 3.745 3.745 0 0 0-2.718 1.127 2.665 2.665 0 0 0-.723 2.672l-.332.067a3.946 3.946 0 0 1-.613.062h-.129c-1.803 0-2.6-1.875-2.6-1.875s-1.884 2.328.932 4.173c.484.312.699.613.613.92l-.043.201-.202.037c-2.037.552-3.067 1.955-4.331 3.554a6.585 6.585 0 0 1-4.926 2.488h-.06s.613 1.95 2.454 1.95h.085a2.38 2.38 0 0 0 1.264-.35s.325 4.418-2.981 5.791A2.33 2.33 0 0 0 3.6 30.338a2.788 2.788 0 0 0 2.325-1.017 8.676 8.676 0 0 0 .497 3.064 5.21 5.21 0 0 1 0 3.677c.27.067.549.102.828.104.174.001.347-.02.515-.061a2.405 2.405 0 0 0 1.73-1.588s-.129 4.247 4.828 4.247h.037a4.85 4.85 0 0 1-.559-2.298c-.233-3.15-2.374-3.585-2.374-3.585l.025.019Zm-.822.747c-1.988-2.329-3.68-4.743-3.92-8.23-.208.613-1.055 2.39-2.398 3.064 0 0 1.687-1.017 2.453-4.982v.03c.503-4.038 3.436-6.955 6.705-8.726.3-.166.583-.3.853-.43a4.71 4.71 0 0 1-3.828-.9s1.89 1.391 5.766.129c-1.055.704-3.134 1.685-5.036 3.272-4.76 4.174-1.356 8.249-1.356 8.249a4.993 4.993 0 0 1-1.276-5.252 9.718 9.718 0 0 0-1.386 5.552c.129 3.211 1.896 5.981 3.748 8.212a5.514 5.514 0 0 1 1.098 2.408 7.523 7.523 0 0 0-1.399-2.377m9.159-16.296c.08.086.16.184.24.276l.055.068.214.294.05.067c.08.123.159.258.239.386a3.61 3.61 0 0 0 2.883 1.98 3.614 3.614 0 0 0 2.877-1.973c.08-.135.16-.27.245-.393l.037-.055c.074-.104.147-.208.22-.306l.05-.061c.08-.098.16-.197.245-.282l.037-.037a2.964 2.964 0 0 1 1.368-.815l-.245-.129-1.006-.613-1.031-.612-2.797 1.532-2.76-1.502-1.031.613-1.006.613-.258.147c.518.125.993.387 1.374.76l.043.043h-.043Zm2.589-.122h2.319v.803a.99.99 0 0 0-.81-.27v1.152c-.003.286.064.568.196.822H22.98c.14-.25.216-.53.22-.816v-1.152a.988.988 0 0 0-.81.27l.013-.809Z" fill="#fff"></path><path d="M23.267 15.698V11.01l-2.988-1.012.761 4.554 2.227 1.146Zm-.613-3.536v.753l-.148-.067a1.841 1.841 0 0 1-.613-.35 1.36 1.36 0 0 1-.614-.912l1.375.576Zm3.294 2.39.785-4.541-2.988 1.01v4.689l2.203-1.158Zm-1.559-2.39 1.356-.57a1.36 1.36 0 0 1-.613.913c-.18.155-.389.273-.614.35l-.14.066.011-.76ZM19.04 26.57c.265.086.543.13.822.128v-.085c.017-.055.031-.11.043-.166.044-.245.068-.493.073-.742a1.042 1.042 0 0 1-.392-.417.52.52 0 0 0-.503-.343 1.623 1.623 0 0 0-.76.264 1.33 1.33 0 0 0 .686 1.355m6.638-2.483c-.552.613-1.644 1.655-1.693 1.704l-.068.067-3.429-.055c-.003.283-.04.565-.11.84v.11l4.08.735c.422-.294 1.594-1.152 2.048-1.483a1.984 1.984 0 0 1-.288-1.452 2.049 2.049 0 0 1-.516-.46" fill="#fff"></path><path d="M26.113 19.957a3.503 3.503 0 0 1-2.62 1.164 3.315 3.315 0 0 1-.373 0 2.753 2.753 0 0 1-.368-.055 1.39 1.39 0 0 0 .067.84 1.416 1.416 0 0 0 .859.71l.141.056v.153a1.427 1.427 0 0 0 1.123 1.317c.177-.184.337-.349.46-.484a1.126 1.126 0 0 1 .214-1.317 1.838 1.838 0 0 0 .896 1.838l.172.08-.05.183a1.445 1.445 0 0 0 .902 1.796l.227.086-.098.22a1.414 1.414 0 0 0 .657 1.839h2.533v-2.022a1.614 1.614 0 0 1-1.386-1.355 1.472 1.472 0 0 1-.97-.551 1.226 1.226 0 0 1-.06-1.324c.005.41.155.805.422 1.115.22.23.517.372.835.399h.184v.19a1.224 1.224 0 0 0 .975 1.127v-4.13c.024-.645.163-1.28.41-1.875h-5.152Zm-6.852 1.893-.073 2.63.3.042.73-2.518-.368-.779-.589.625Zm8.061 12.054h.073c.454.13.57 1.765 1.368 1.912a.966.966 0 0 0 .215 0 .615.615 0 0 0 .515-.275s-.399-.613-.7-1.054c-.398-.558-.705-1.226-1.453-1.226h-.055a.748.748 0 0 0-.393.129 1.54 1.54 0 0 0-.834-.252 5.808 5.808 0 0 0-1.006.215l-1.656-.166a.877.877 0 0 1-.54-.386v-.177a1.954 1.954 0 0 0-1.478-1.943s.043-.257-.056-.355l-.368.44-1.227-.612.86.999-.774.858a.226.226 0 0 0-.043.27l.313.275.399-.239a.184.184 0 0 1 .098 0h.423c.148 0 .301-.036.32-.184-.05.503-.516 1.373-.21 2.06l.228.52-1.466-.208-.675 1.158a.931.931 0 0 0 0 1.03l.258.319c.178-.18.327-.387.441-.613l-.116-.13a.245.245 0 0 1-.03-.318l.428-.71 1.73.404.092-.153a.502.502 0 0 1 .473-.252 1.51 1.51 0 0 1 .233 0c.454.092.916.141 1.38.148a1.978 1.978 0 0 0 1.46-.448c.613.932 1.895 1.079 1.797 1.55l-.337 1.588c.22 0 .435 0 .613-.05l.32-1.654c.036-.178.067-.423.067-.423a3.064 3.064 0 0 1-.614-.705c-.227-.428-.104-.655-.313-1.225a.245.245 0 0 1 .209-.129l.03.012Zm-6.509-2.34a.147.147 0 0 1-.14-.16.147.147 0 0 1 .159-.14.15.15 0 1 1 0 .3" fill="#fff"></path><path d="M18.482 35.388s.577-.239.614-.404l-.074-.19a.257.257 0 0 1 .055-.331l.614-.43 1.036.197a.876.876 0 0 1-.172-.546l-.987-.209-.933.564a.901.901 0 0 0-.294 1.073l.141.276Zm7.318 2.715h.613s.534-1.557.564-1.606a13.19 13.19 0 0 1-1.158-.613c.16.239.54.503.466.711l-.485 1.508Z" fill="#fff"></path><path d="M30.855 28.88H16.133v5.515c0 2.261 1.638 3.677 4.055 3.677 2.018 0 2.551.08 3.306.82a2.455 2.455 0 0 1 1.84-.778v-.085l.485-1.416-.785-.895a2.845 2.845 0 0 1-.976.117 7.99 7.99 0 0 1-1.46-.153.677.677 0 0 0-.153 0c-.068 0-.068 0-.086.036l-.092.154-.166.275-.319-.073-1.41-.331-.197.319v.036l.172.19-.074.245a2.53 2.53 0 0 1-.546.803l-.355.38-.32-.404-.239-.3a1.225 1.225 0 0 1-.171-1.177l-.399.165-.178-.386-.123-.275a1.34 1.34 0 0 1 .448-1.624l1.135-.613 1.08.214c0-.104.067-.472.098-.57h-.062l-.613.233-.613-.417a.317.317 0 0 1 0-.453l.582-.883-1.478-1.838 2.27.931.153-.183.307-.368.35.33a.662.662 0 0 1 .183.326c.614.245 1.742.962 1.84 2.126l-.349.141c.043.058.1.105.166.135l1.619.16.147-.044c.275-.102.566-.158.859-.165.293.002.582.069.846.196.117-.042.239-.067.363-.073h.08a2.001 2.001 0 0 1 1.643 1.164l.178.257c.3.43.7 1.048.712 1.079l.178.276-.221.25a1.08 1.08 0 0 1-.853.424 1.604 1.604 0 0 1-.294 0 1.272 1.272 0 0 1-.295-.166c0 .086 0 .19-.049.276l-.282 1.477a3.46 3.46 0 0 0 2.785-3.53v-5.528Zm-14.722-.448h11.465a1.837 1.837 0 0 1-.418-1.838 1.906 1.906 0 0 1-.429-.282c-.448.33-1.84 1.323-2.171 1.575l-.074.049-4.49-.81h-.092c-.145.01-.29.01-.436 0a.435.435 0 0 1-.423.344h-.074a.448.448 0 0 1-.368-.509v-.098a1.796 1.796 0 0 1-.699-1.838l.05-.055.067-.05s.085-.06.202-.122l-.325-.05a.227.227 0 0 1-.154-.339.22.22 0 0 1 .227-.101l.78.122.073-2.733 1.16-1.226.723 1.52-.791 2.605.687.11a.227.227 0 0 1 .184.257.22.22 0 0 1-.22.184h-.038l-.558-.092v.043a.62.62 0 0 0 .27.252l3.423.055.877-.864a1.84 1.84 0 0 1-1.227-1.526 1.797 1.797 0 0 1-.975-.889 1.837 1.837 0 0 1-.08-1.226 3.999 3.999 0 0 1-1.429-.956h-5.11a5.51 5.51 0 0 1 .393 1.888v6.6Z" fill="#FCE527"></path><path d="M20.862 31.276a.147.147 0 0 0-.16.14.146.146 0 0 0 .037.11.148.148 0 0 0 .105.05.15.15 0 0 0 0-.3m10.011 10.031-.847-.325.233-.876.258-.956a20.04 20.04 0 0 1-3.619 1.428c-.613.172-1.055.251-1.055.251v.65c-.753.122-1.514.188-2.276.196h-.055a15.209 15.209 0 0 1-2.276-.196v-.65s-.454-.08-1.055-.25a19.99 19.99 0 0 1-3.62-1.429l.252.956.24.877-.853.324-.945.35a24.724 24.724 0 0 0 3.963 1.66l-.325.883c1.474.561 3.042.832 4.619.796h.037a12.198 12.198 0 0 0 4.637-.796l-.325-.883a24.514 24.514 0 0 0 3.95-1.654l-.938-.356Zm-14.618.41 1.393-.459-.411-1.342c.898.448 1.831.821 2.79 1.116l-.674 1.838a16.88 16.88 0 0 1-3.098-1.152Zm7.257 2.82a15.484 15.484 0 0 1-4-.57l.829-2.237a13.43 13.43 0 0 0 3.17.399h.068a13.463 13.463 0 0 0 3.153-.405l.804 2.243a15.474 15.474 0 0 1-4.012.564l-.012.006Zm4.183-1.667-.674-1.838c.96-.295 1.893-.668 2.79-1.116l-.41 1.342 1.392.46c-.994.485-2.034.871-3.104 1.152M23.494 6.389a6.366 6.366 0 0 1 3.883 1.176 7.673 7.673 0 0 1 1.023-2.56l-1.392.16-.749-1.545-1.398.717L23.494 3l-1.35 1.336-1.392-.717-.724 1.544-1.392-.16a7.658 7.658 0 0 1 1 2.563 6.378 6.378 0 0 1 3.858-1.177Zm-3.527-.686.386.042.166-.349.484-1.036.902.466.35.178.276-.257.963-.987.987.987.276.275.35-.177.896-.466.49 1.036.166.349.386-.043.368-.043a8.688 8.688 0 0 0-.38 1.036 7.735 7.735 0 0 0-7.048 0 8.97 8.97 0 0 0-.38-1.036l.362.025Zm23.77 18.764c2.232 0 2.98-2.267 3.012-2.365l.251-.797h-.834a5.991 5.991 0 0 1-4.503-2.28l-.165-.208c-1.141-1.446-2.22-2.825-4.16-3.456.078-.068.16-.13.246-.184a3.636 3.636 0 0 0 1.773-2.451 3.62 3.62 0 0 0-.736-2.617l-.614-.766-.404.919c0 .055-.681 1.514-2.055 1.514h-.375a3.306 3.306 0 0 0-.981-2.599 4.354 4.354 0 0 0-3.147-1.305 4.17 4.17 0 0 0-.656.049l-.939.184.577.76c.454.613.865 1.673.38 2.236a2.641 2.641 0 0 1-.785.472c-.613.288-1.497.699-1.497 1.729 0 .668.522 1.366 1.46 1.954 2.779 1.747 4.49 3.567 5.233 5.577 1.147 3.064-.35 4.86-1.804 5.785l-.65.417.57.52c.51.434 1.139.701 1.804.767h.558a5.73 5.73 0 0 0 1.68-.245c-.135.237-.293.46-.471.667a4.103 4.103 0 0 1-3.32 1.422h-.545l-.043.546a2.58 2.58 0 0 0 .914 1.985c.153.134.325.246.51.331a4.766 4.766 0 0 0-1.442 3.352 4.617 4.617 0 0 1-.442 2.072l-.613.919h1.091c1.8 0 3.178-.492 4.135-1.477a4.675 4.675 0 0 0 1.08-1.838 2.928 2.928 0 0 0 1.883.686c.33-.001.66-.04.981-.117l.693-.184-.306-.649a4.616 4.616 0 0 1 0-3.211c.227-.677.385-1.375.472-2.084a3.831 3.831 0 0 0 1.785.417 2.952 2.952 0 0 0 2.515-1.336l.337-.613-.613-.257c-2.055-.852-2.509-3.138-2.595-4.376.202.041.407.066.614.074l.14.061Zm1.625 4.841a2.323 2.323 0 0 1-1.981 1.042 2.793 2.793 0 0 1-2.325-1.017 8.665 8.665 0 0 1-.503 3.064 5.198 5.198 0 0 0 0 3.677 3.571 3.571 0 0 1-.834.104 2.07 2.07 0 0 1-.515-.061 2.405 2.405 0 0 1-1.73-1.587s.129 4.246-4.828 4.246h-.037a4.83 4.83 0 0 0 .565-2.298c.233-3.15 2.367-3.585 2.367-3.585a3.793 3.793 0 0 1-1.619-.57 2.01 2.01 0 0 1-.718-1.507 4.685 4.685 0 0 0 3.785-1.63 4.777 4.777 0 0 0 1.098-2.262 4.26 4.26 0 0 1-2.748.852h-.503a2.663 2.663 0 0 1-1.448-.613c1.89-1.225 3.209-3.315 2.037-6.495-.939-2.544-3.202-4.45-5.478-5.877-.754-.472-1.178-1-1.178-1.447 0-1.066 1.516-1.096 2.135-1.838.718-.834.27-2.176-.356-2.99.179-.031.36-.046.54-.044A3.745 3.745 0 0 1 33.806 9.6a2.671 2.671 0 0 1 .723 2.672l.332.067c.202.037.407.058.613.062h.135c1.797 0 2.6-1.876 2.6-1.876s1.908 2.348-.9 4.186c-.485.313-.7.613-.614.92l.043.201.202.037c2.037.552 3.067 1.955 4.33 3.555a6.592 6.592 0 0 0 4.884 2.482h.036s-.613 1.948-2.453 1.948h-.086a2.38 2.38 0 0 1-1.264-.35s-.325 4.42 2.975 5.792" fill="#222220"></path><path d="M39.83 15.63a5.52 5.52 0 0 1 1.741 1.563c.348.54.847.966 1.436 1.226.223.074.457.111.693.11a2.503 2.503 0 0 0 2.22-1.36l.356-.791-.865-.05a4.13 4.13 0 0 1-2.386-1.36 2.454 2.454 0 0 0-1.785-.79 2.805 2.805 0 0 0-1.472.447l-.791.558.852.447Zm1.41-.87a1.842 1.842 0 0 1 1.356.613 4.724 4.724 0 0 0 2.779 1.538 1.925 1.925 0 0 1-1.675 1.011c-.174 0-.346-.029-.51-.086-.987-.33-1.343-1.838-3.066-2.739a2.154 2.154 0 0 1 1.128-.343m-1.03 8.751c-.503-4.038-3.435-6.956-6.699-8.727-.3-.159-.583-.3-.853-.429a4.716 4.716 0 0 0 3.834-.9s-1.889 1.39-5.766.128c1.074.693 3.153 1.673 5.061 3.267 4.754 4.173 1.356 8.248 1.356 8.248a4.993 4.993 0 0 0 1.276-5.252 9.754 9.754 0 0 1 1.386 5.552c-.129 3.212-1.896 5.982-3.754 8.212a5.513 5.513 0 0 0-1.092 2.409 7.45 7.45 0 0 1 1.405-2.347c1.987-2.33 3.68-4.744 3.913-8.23.209.612 1.055 2.39 2.399 3.063 0 0-1.693-1.017-2.454-4.982M14.906 38.452a4.757 4.757 0 0 1-.46-2.004 4.766 4.766 0 0 0-1.442-3.352c.185-.085.357-.197.51-.331a2.569 2.569 0 0 0 .914-1.986l-.037-.545h-.552a4.107 4.107 0 0 1-3.313-1.422 4.474 4.474 0 0 1-.527-.693 5.705 5.705 0 0 0 1.674.246h.559a3.29 3.29 0 0 0 1.803-.773l.57-.52-.65-.417c-1.454-.932-2.944-2.697-1.803-5.785.742-2.01 2.454-3.83 5.232-5.577.939-.613 1.454-1.293 1.454-1.955 0-1.03-.859-1.434-1.49-1.728a2.62 2.62 0 0 1-.786-.472c-.49-.563-.08-1.648.374-2.237l.583-.76-.944-.183a4.125 4.125 0 0 0-.65-.05 4.353 4.353 0 0 0-3.148 1.306 3.314 3.314 0 0 0-.938 2.568h-.368c-1.38 0-2.03-1.459-2.055-1.514l-.386-.913-.614.766a3.637 3.637 0 0 0-.73 2.617 3.627 3.627 0 0 0 1.773 2.451c.087.054.169.116.245.184-1.938.613-3.018 2.01-4.159 3.456l-.165.209a5.985 5.985 0 0 1-4.509 2.28L0 21.292l.258.796c0 .098.773 2.366 3.005 2.366h.11c.207-.008.412-.033.614-.074-.092 1.226-.546 3.524-2.6 4.376l-.614.257.337.613a2.95 2.95 0 0 0 2.521 1.342 3.838 3.838 0 0 0 1.78-.417 10.5 10.5 0 0 0 .472 2.084 4.617 4.617 0 0 1 0 3.211l-.307.65.7.184c.32.076.65.115.98.116a2.916 2.916 0 0 0 1.883-.686 4.675 4.675 0 0 0 1.074 1.838c.957.985 2.336 1.477 4.135 1.477h1.092l-.534-.974Zm-.527.337c-4.957 0-4.828-4.247-4.828-4.247a2.402 2.402 0 0 1-2.245 1.648 3.546 3.546 0 0 1-.828-.104 5.21 5.21 0 0 0 0-3.677 8.676 8.676 0 0 1-.497-3.064 2.783 2.783 0 0 1-2.325 1.017 2.333 2.333 0 0 1-1.981-1.041c3.3-1.373 2.98-5.792 2.98-5.792-.38.233-.817.354-1.263.35h-.14C1.41 23.879.796 21.93.796 21.93h.037a6.594 6.594 0 0 0 4.95-2.506c1.258-1.6 2.295-3.003 4.331-3.555l.203-.037.043-.202c.055-.312-.16-.613-.614-.919-2.81-1.838-.902-4.186-.902-4.186s.798 1.876 2.601 1.876h.13a3.97 3.97 0 0 0 .613-.062l.33-.067a2.664 2.664 0 0 1 .725-2.672 3.74 3.74 0 0 1 2.717-1.128 3.05 3.05 0 0 1 .54.043c-.614.81-1.067 2.157-.35 2.99.614.718 2.135.749 2.135 1.84 0 .453-.423.974-1.178 1.446-2.276 1.434-4.533 3.333-5.478 5.877-1.171 3.174.154 5.282 2.043 6.495a2.67 2.67 0 0 1-1.454.613h-.509a4.26 4.26 0 0 1-2.748-.852 4.809 4.809 0 0 0 1.092 2.262 4.7 4.7 0 0 0 3.76 1.624 2.007 2.007 0 0 1-.748 1.513 3.799 3.799 0 0 1-1.638.613s2.135.435 2.374 3.585c-.006.8.185 1.59.558 2.298l.019-.03Z" fill="#222220"></path><path d="M3.312 18.517c.236.001.47-.036.693-.11a3.275 3.275 0 0 0 1.436-1.226 5.52 5.52 0 0 1 1.742-1.563l.858-.46-.797-.557a2.8 2.8 0 0 0-1.472-.448 2.457 2.457 0 0 0-1.785.79A4.129 4.129 0 0 1 1.6 16.305l-.865.086.355.79a2.501 2.501 0 0 0 2.221 1.355v-.018ZM4.41 15.39a1.839 1.839 0 0 1 1.362-.613 2.16 2.16 0 0 1 1.16.325c-1.737.926-2.093 2.409-3.068 2.74a1.501 1.501 0 0 1-.503.085 1.922 1.922 0 0 1-1.675-1.01 4.724 4.724 0 0 0 2.773-1.54m2.749 10.046a9.718 9.718 0 0 1 1.386-5.552 4.99 4.99 0 0 0 1.276 5.252s-3.404-4.076 1.356-8.249c1.901-1.587 3.98-2.567 5.054-3.266-3.87 1.262-5.766-.129-5.766-.129a4.707 4.707 0 0 0 3.828.901c-.27.129-.552.27-.853.429-3.27 1.771-6.202 4.688-6.705 8.727v-.031c-.76 3.965-2.453 4.982-2.453 4.982 1.343-.662 2.19-2.42 2.398-3.064.227 3.487 1.926 5.902 3.92 8.23a7.517 7.517 0 0 1 1.399 2.378 5.512 5.512 0 0 0-1.098-2.408c-1.84-2.231-3.62-5.007-3.748-8.212m15.188-8.157v.803a.988.988 0 0 1 .81-.27v1.153a1.724 1.724 0 0 1-.221.815h1.128a1.741 1.741 0 0 1-.22-.815v-1.152a.988.988 0 0 1 .81.27v-.804H22.39Zm-.498-4.749c.18.155.389.274.614.35l.147.067v-.76l-1.355-.57a1.359 1.359 0 0 0 .613.913m3.208 0a1.355 1.355 0 0 0 .613-.913l-1.355.57v.754l.141-.068c.226-.074.434-.193.613-.349" fill="#222220"></path><path d="M27.567 9.435c0-1.146-1.926-2.176-4.055-2.176-2.128 0-4.054 1.03-4.054 2.176l.043.281.852 4.903-.853.496-2.226 1.275s-.497.258-.73.41c-.84.613-1.018 1.435-.534 1.784a1.66 1.66 0 0 1 1.7-1.422 2.21 2.21 0 0 1 1.76.956c.12.148.23.304.331.466.129.208.258.392.38.57h-5.668a6.11 6.11 0 0 1 .816 2.696v12.557c0 3.064 2.343 4.498 4.908 4.498 1.956 0 2.22-.092 3.306.987 1.073-1.079 1.337-.987 3.3-.987 2.534 0 4.877-1.452 4.877-4.498V21.832a6.13 6.13 0 0 1 .816-2.697h-5.724a7.05 7.05 0 0 0 .38-.57c.103-.16.213-.316.332-.465a2.214 2.214 0 0 1 1.76-.956 1.67 1.67 0 0 1 1.7 1.422c.49-.35.313-1.226-.534-1.784-.209-.159-.718-.392-.718-.392l-2.208-1.287-.853-.496.853-4.903.043-.27Zm-7.288.563 2.988 1.011v4.689l-2.227-1.146-.76-4.554Zm.614 9.959c.401.418.889.744 1.43.956-.116.405-.088.838.079 1.225.2.41.549.728.975.889a1.837 1.837 0 0 0 1.227 1.526l-.895.845-3.423-.055a.612.612 0 0 1-.27-.25v-.044l.558.092h.037a.22.22 0 0 0 .181-.35.227.227 0 0 0-.144-.091l-.687-.11.76-2.63-.724-1.52-1.159 1.226-.074 2.734-.79-.123a.219.219 0 0 0-.228.102.227.227 0 0 0 .154.34l.325.048a1.295 1.295 0 0 0-.203.129l-.049.074v.08a1.794 1.794 0 0 0 .7 1.838v.098a.447.447 0 0 0 .367.508h.074a.436.436 0 0 0 .423-.343c.145.009.29.009.436 0h.092l4.49.81.074-.05c.355-.251 1.723-1.226 2.171-1.575.13.113.274.208.43.282a1.837 1.837 0 0 0 .417 1.838H16.133v-6.624a5.473 5.473 0 0 0-.411-1.875h5.171Zm5.52 6.036c-.453.337-1.625 1.189-2.048 1.483l-4.08-.735v-.11a3.56 3.56 0 0 0 .111-.84l3.43.055.067-.067c.049-.05 1.14-1.104 1.693-1.704.144.18.319.336.515.46a1.983 1.983 0 0 0 .288 1.452l.025.006Zm-6.796-.705c.09.173.225.317.393.417-.006.249-.03.497-.074.742 0 .055 0 .11-.043.165v.086a2.67 2.67 0 0 1-.822-.129 1.33 1.33 0 0 1-.687-1.354c.22-.14.47-.223.73-.245a.515.515 0 0 1 .497.343l.006-.025Zm-.417-.815.067-2.629.614-.613.368.772-.73 2.52-.32-.05Zm7.214 13.617H25.8l.485-1.477c.073-.208-.307-.478-.466-.717.375.224.762.429 1.16.613 0 .049-.565 1.605-.565 1.605v-.024Zm1.527-1.691-.319 1.654c-.202 0-.417.043-.613.05l.337-1.588c.098-.472-1.172-.613-1.797-1.55a1.97 1.97 0 0 1-1.46.447 7.475 7.475 0 0 1-1.38-.147 1.487 1.487 0 0 0-.233 0 .504.504 0 0 0-.473.251l-.092.153-1.73-.404-.429.71a.25.25 0 0 0 .03.32l.117.128a2.416 2.416 0 0 1-.441.613l-.258-.343a.93.93 0 0 1 0-1.03l.687-1.158 1.466.208-.227-.52c-.307-.687.16-1.557.209-2.06 0 .154-.16.184-.32.184h-.423a.178.178 0 0 0-.098 0l-.398.24-.283-.276a.227.227 0 0 1 .043-.27l.724-.815-.859-1 1.227.614.368-.441c.098.098.055.355.055.355a1.957 1.957 0 0 1 1.479 1.943v.177a.877.877 0 0 0 .54.386l1.656.166a5.827 5.827 0 0 1 1.006-.215c.296.002.586.089.834.252a.743.743 0 0 1 .393-.13h.055c.742 0 1.055.675 1.454 1.227.3.422.699 1.054.699 1.054a.612.612 0 0 1-.515.275 1.085 1.085 0 0 1-.215 0c-.798-.147-.914-1.783-1.368-1.912h-.074a.245.245 0 0 0-.208.13c.208.557.086.784.313 1.225.167.264.374.502.613.704 0 0-.03.24-.067.423l-.025-.03Zm-8.913-1.588.074.19c-.05.166-.614.405-.614.405l-.122-.27a.9.9 0 0 1 .294-1.072l.933-.564.987.208a.876.876 0 0 0 .172.546l-1.037-.196-.613.429a.257.257 0 0 0-.055.33l-.019-.006Zm9.085 3.132.288-1.483c0-.086.03-.19.043-.276.083.036.17.063.258.08.098.009.196.009.294 0a1.08 1.08 0 0 0 .853-.423l.22-.251-.177-.276s-.411-.65-.712-1.079l-.171-.257a1.998 1.998 0 0 0-1.645-1.164h-.08a1.26 1.26 0 0 0-.361.073 1.976 1.976 0 0 0-.847-.196 2.628 2.628 0 0 0-.858.165l-.148.043-1.62-.159a.436.436 0 0 1-.165-.14l.35-.142c-.098-1.164-1.227-1.881-1.84-2.126A.663.663 0 0 0 21.61 30l-.35-.331-.307.368-.153.183-2.27-.931 1.473 1.838-.583.883a.318.318 0 0 0 0 .453l.613.417.614-.233h.06c0 .092-.066.466-.097.57l-1.08-.214-1.135.612a1.342 1.342 0 0 0-.423 1.704l.129.276.178.386.398-.166a1.226 1.226 0 0 0 .172 1.177l.24.3.319.405.355-.38c.233-.23.418-.502.546-.803l.074-.245-.172-.19v-.037l.196-.319 1.411.332.32.073.171-.282.092-.153c0-.03 0-.037.086-.037h.153c.481.096.97.147 1.46.153.33.018.66-.021.976-.116l.742.92-.485 1.427v.086a2.456 2.456 0 0 0-1.84.778c-.755-.748-1.282-.821-3.306-.821-2.417 0-4.055-1.416-4.055-3.677v-5.515h14.722v5.515a3.455 3.455 0 0 1-2.773 3.53l.03.006Zm3.153-17.986a5.393 5.393 0 0 0-.411 1.875v4.124a1.227 1.227 0 0 1-.97-1.115v-.19h-.183a1.313 1.313 0 0 1-.835-.398 1.746 1.746 0 0 1-.429-1.122 1.225 1.225 0 0 0 .068 1.379c.238.304.586.502.969.551a1.612 1.612 0 0 0 1.38 1.355v2.022H28.32a1.416 1.416 0 0 1-.656-1.838l.098-.221-.227-.086a1.448 1.448 0 0 1-.902-1.795l.05-.184-.172-.08a1.84 1.84 0 0 1-.896-1.838 1.127 1.127 0 0 0-.214 1.317c-.123.135-.283.307-.46.484a1.43 1.43 0 0 1-1.123-1.323v-.172l-.141-.055a1.424 1.424 0 0 1-.859-.741 1.39 1.39 0 0 1-.061-.895c.121.027.244.045.368.055.124.006.25.006.374 0a3.505 3.505 0 0 0 2.6-1.164l5.166.055Zm-3.957-4.18 1.006.613.252.147a2.968 2.968 0 0 0-1.368.815l-.025.019a5.365 5.365 0 0 0-.245.282l-.05.06a4.87 4.87 0 0 0-.22.307l-.037.055c-.086.123-.165.258-.245.393a3.611 3.611 0 0 1-2.883 1.973 3.615 3.615 0 0 1-2.87-1.973c-.08-.135-.16-.264-.24-.387l-.05-.067-.214-.294-.055-.067c-.08-.098-.16-.19-.24-.276l-.012-.05a2.963 2.963 0 0 0-1.368-.808l.258-.147 1.006-.613 1.03-.613 2.755 1.55 2.76-1.5 1.055.581Zm-1.361-1.225-2.203 1.158v-4.7l2.988-1.012-.785 4.554Zm-2.454-4.045-3.27-1.293c.276-.656 1.565-1.226 3.27-1.226s2.993.564 3.276 1.226l-3.276 1.293Z" fill="#222220"></path></svg>