<svg width="47" height="47" viewBox="0 0 47 47" fill="none" xmlns="http://www.w3.org/2000/svg"><path transform="scale(1.3 1.3) translate(-2,-19)" d="M7.941 43.995 3.839 32.102h2.877l1.592 5.166c.462 1.533.705 2.343 1.012 3.628.279-1.23.462-1.814.977-3.547l1.592-5.247h2.753l-4.161 11.893H7.94Zm11.01 0v-9.9h-3.764v-1.998h10.466l-.746 1.997h-3.339v9.895h-2.616v.006Zm10.106-7.142h1.468c.45 0 .675 0 .9-.06.61-.167.994-.658.994-1.338 0-.805-.408-1.15-.994-1.318-.249-.06-.497-.08-.995-.08h-1.373v2.796Zm.024 2.056v3.126h1.805c.539 0 1.036-.043 1.397-.35.361-.309.521-.703.521-1.216 0-.388-.112-.76-.337-1.03-.385-.432-.859-.535-1.67-.535h-1.716v.005Zm4.173-1.252v.043c.497.162.97.454 1.22.637.77.578 1.107 1.339 1.107 2.327 0 1.625-.948 2.796-2.505 3.169-.473.124-.97.167-1.894.167h-4.718V32.102h4.174c.858 0 1.444.043 1.965.168 1.51.372 2.504 1.317 2.504 2.817 0 .805-.314 1.48-.835 1.933-.23.205-.544.448-1.018.637Z" fill="#002882"></path></svg>