<svg width="179" height="550" viewBox="0 0 179 550" fill="none" xmlns="http://www.w3.org/2000/svg"><g opacity=".812"><mask id="mainBgMobile_svg__a" mask-type="alpha" maskUnits="userSpaceOnUse" x="0" y="-124" width="643" height="591"><path fill-rule="evenodd" clip-rule="evenodd" d="M.799-20.202c49.025 13.019 93.585 44.236 113.27 94.354 17.151 43.656 2.56 86.488-7.004 129.829-4.758 21.509-8.28 43.138-6.048 65.049 3.833 37.601 16.406 68.041 44.559 91.796 31.133 26.246 72.995 39.302 112.554 41.16 22.979 1.086 44.924-2.481 66.344-8.653 14.224-4.097 28.205-9.343 42.122-15.137 26.743-11.157 47.486-23.767 77.275-20.462.408.011.825.066 1.24.12 29.916 3.732 60.104 22.489 75.55 50.022 8.785 15.672 13.64 30.098 17.407 47.513.498 2.34 1.185 6.855 1.951 11.243l102.353-19.895L531.554-123.37.799-20.202Z" fill="#fff"/></mask><g mask="url(#mainBgMobile_svg__a)"><path fill-rule="evenodd" clip-rule="evenodd" d="M.799-20.202c49.025 13.019 93.585 44.236 113.27 94.354 17.151 43.656 2.56 86.488-7.004 129.829-4.758 21.509-8.28 43.138-6.048 65.049 3.833 37.601 16.406 68.041 44.559 91.796 31.133 26.246 72.995 39.302 112.554 41.16 22.979 1.086 44.924-2.481 66.344-8.653 14.224-4.097 28.205-9.343 42.122-15.137 26.743-11.157 47.486-23.767 77.275-20.462.408.011.825.066 1.24.12 29.916 3.732 60.104 22.489 75.55 50.022 8.785 15.672 13.64 30.098 17.407 47.513.498 2.34 1.185 6.855 1.951 11.243l102.353-19.895L531.554-123.37.799-20.202Z" fill="url(#mainBgMobile_svg__b)"/></g><mask id="mainBgMobile_svg__c" mask-type="alpha" maskUnits="userSpaceOnUse" x="164" y="-104" width="496" height="432"><path fill-rule="evenodd" clip-rule="evenodd" d="m659.525 324.036-27.751-142.763c-61.366 8.047-111.891 33.303-166.745 61.679-49.475 25.596-93.796 76.837-150.916 83.652-50.17 5.984-78.296-34.199-71.319-84.141 6.779-48.752 37.489-90.893 56.353-134.728C321.019 56.839 316.331-3.877 282.928-46.15L164.024-23.037l412.453-80.173" fill="#fff"/></mask><g mask="url(#mainBgMobile_svg__c)"><path fill-rule="evenodd" clip-rule="evenodd" d="M465.029 242.952c-49.475 25.596-93.796 76.838-150.916 83.652-50.17 5.985-78.296-34.199-71.319-84.14 6.779-48.753 37.489-90.893 56.353-134.729C321.019 56.84 316.331-3.877 282.928-46.149L45.12.076c49.075 13.004 93.678 44.209 113.372 94.313 17.156 43.649 2.54 86.476-7.045 129.815-4.769 21.508-8.298 43.135-6.07 65.043 3.826 37.596 16.407 68.029 44.585 91.774 31.16 26.235 73.066 39.279 112.668 41.126 23.001 1.081 44.971-2.491 66.416-8.666 14.241-4.101 28.238-9.35 42.171-15.148 26.776-11.163 47.544-23.775 77.365-20.477.408.011.826.066 1.241.12 29.948 3.724 60.164 22.471 75.62 49.997 8.791 15.668 13.646 30.091 17.415 47.503.497 2.339 1.184 6.854 1.95 11.241L687.275 466.8l-55.5-285.527c-61.367 8.048-111.892 33.304-166.746 61.679Z" fill="url(#mainBgMobile_svg__d)"/></g><mask id="mainBgMobile_svg__e" mask-type="alpha" maskUnits="userSpaceOnUse" x="0" y="-125" width="643" height="675"><path fill-rule="evenodd" clip-rule="evenodd" d="m32.021-26.924 31.834-6.187c9.324 5.115 20.023 10.693 26.872 17.8 8.47 8.735 18.424 20.377 24.626 30.748 12.787 21.39 22.98 47.12 23.589 72.343.883 36.407-11.657 82.239-32.427 115.613 9.585-43.34 24.201-86.167 7.045-129.815C93.866 23.473 49.263-7.732.188-20.736l31.833-6.188 499.524-97.097 110.798 570.009-531.356 103.285L.188-20.736" fill="#fff"/></mask><g mask="url(#mainBgMobile_svg__e)"><path fill-rule="evenodd" clip-rule="evenodd" d="M138.942 87.78c.883 36.407-11.657 82.239-32.427 115.613 9.585-43.34 24.201-86.167 7.045-129.815C93.866 23.473 49.263-7.732.188-20.736L63.854-33.11c9.325 5.115 20.024 10.693 26.873 17.8 8.47 8.735 18.424 20.377 24.626 30.748 12.787 21.39 22.98 47.12 23.589 72.343Z" fill="url(#mainBgMobile_svg__f)"/></g></g><mask id="mainBgMobile_svg__g" mask-type="alpha" maskUnits="userSpaceOnUse" x="5" y="-143" width="643" height="591"><path fill-rule="evenodd" clip-rule="evenodd" d="M5.493-39.831c49.025 13.018 93.585 44.236 113.27 94.353 17.152 43.656 2.56 86.488-7.004 129.829-4.758 21.509-8.28 43.138-6.047 65.049 3.833 37.601 16.406 68.041 44.559 91.796 31.132 26.247 72.994 39.302 112.554 41.16 22.978 1.086 44.923-2.481 66.343-8.653 14.225-4.097 28.206-9.343 42.122-15.137 26.744-11.157 47.486-23.767 77.276-20.462.408.011.824.066 1.239.12 29.916 3.732 60.105 22.489 75.551 50.022 8.785 15.672 13.639 30.098 17.407 47.513.497 2.34 1.184 6.855 1.951 11.243l102.352-19.895L536.249-143 5.493-39.832Z" fill="#fff"/></mask><g mask="url(#mainBgMobile_svg__g)"><path fill-rule="evenodd" clip-rule="evenodd" d="M5.493-39.831c49.025 13.018 93.585 44.236 113.27 94.353 17.152 43.656 2.56 86.488-7.004 129.829-4.758 21.509-8.28 43.138-6.047 65.049 3.833 37.601 16.406 68.041 44.559 91.796 31.132 26.247 72.994 39.302 112.554 41.16 22.978 1.086 44.923-2.481 66.343-8.653 14.225-4.097 28.206-9.343 42.122-15.137 26.744-11.157 47.486-23.767 77.276-20.462.408.011.824.066 1.239.12 29.916 3.732 60.105 22.489 75.551 50.022 8.785 15.672 13.639 30.098 17.407 47.513.497 2.34 1.184 6.855 1.951 11.243l102.352-19.895L536.249-143 5.493-39.832Z" fill="url(#mainBgMobile_svg__h)"/></g><path fill-rule="evenodd" clip-rule="evenodd" d="M128.685 111.138a2.838 2.838 0 1 1-5.668-.3 2.838 2.838 0 0 1 5.668.3Z" fill="#fff"/><path opacity=".3" fill-rule="evenodd" clip-rule="evenodd" d="M127.985 18.655a5.235 5.235 0 0 1-7.093-2.127 5.236 5.236 0 1 1 7.093 2.127Z" fill="#fff"/><path opacity=".5" fill-rule="evenodd" clip-rule="evenodd" d="M158.259 64.096a2.061 2.061 0 1 1-1.956-3.63 2.061 2.061 0 0 1 1.956 3.63Z" fill="#fff"/><path opacity=".2" fill-rule="evenodd" clip-rule="evenodd" d="M73.889 16.939a5.236 5.236 0 1 1 4.785-9.315 5.236 5.236 0 0 1-4.785 9.315Z" fill="#fff"/><path fill-rule="evenodd" clip-rule="evenodd" d="m68.827 90.493-25.84-56.09.234-.11 25.84 56.091-.234.109Z" fill="#fff"/><path opacity=".4" fill-rule="evenodd" clip-rule="evenodd" d="M173.538 16.787a2.839 2.839 0 1 1-4.023-4.002 2.839 2.839 0 0 1 4.023 4.002Z" fill="#fff"/><defs><linearGradient id="mainBgMobile_svg__b" x1="-46.146" y1="2.136" x2="103.725" y2="469.057" gradientUnits="userSpaceOnUse"><stop stop-color="#00C6FF"/><stop offset="1" stop-color="#E23F65"/></linearGradient><linearGradient id="mainBgMobile_svg__d" x1="-374.366" y1="-254.716" x2="-114.896" y2="1080.14" gradientUnits="userSpaceOnUse"><stop stop-color="#fff"/><stop offset="1" stop-color="#fff"/></linearGradient><linearGradient id="mainBgMobile_svg__f" x1="46.039" y1="215.148" x2="160.897" y2="192.822" gradientUnits="userSpaceOnUse"><stop stop-color="#0EB"/><stop offset="1" stop-color="#572DE6"/></linearGradient><linearGradient id="mainBgMobile_svg__h" x1="-41.452" y1="-17.494" x2="108.419" y2="449.427" gradientUnits="userSpaceOnUse"><stop stop-color="#00C6FF"/><stop offset="1" stop-color="#E23F65"/></linearGradient></defs></svg>