<svg width="50" height="50" viewBox="0 0 50 50" fill="none" xmlns="http://www.w3.org/2000/svg"><rect width="50" height="50" rx="12" fill="#D2D2D2"/><path d="M12.743 25.57a5.526 5.526 0 0 1-.045-.652 5.567 5.567 0 0 1 5.56-5.56h15.02v5.023l7.832-6.33-7.832-6.329v4.694h-15.02c-4.688 0-8.504 3.814-8.504 8.505 0 .948.16 1.882.475 2.782l2.514-2.132Z" fill="#fff"/><path d="M37.26 24.43c.028.213.042.43.042.652a5.572 5.572 0 0 1-5.563 5.563H16.72v-5.026l-7.832 6.33 7.832 6.329v-4.691h15.02c4.69 0 8.504-3.817 8.504-8.505 0-.945-.157-1.88-.472-2.782l-2.512 2.13Z" fill="#fff"/></svg>