<svg width="32" height="32" viewBox="0 0 32 32" fill="none" xmlns="http://www.w3.org/2000/svg"><path d="M5.452 16.504a5.01 5.01 0 0 1-.038-.576c0-2.71 2.147-4.914 4.785-4.914h12.926v4.44l6.741-5.595-6.741-5.592v4.148H10.199c-4.035 0-7.32 3.37-7.32 7.515 0 .838.138 1.663.41 2.458l2.163-1.884Z" fill="#9996A7"></path><path d="M26.553 15.496c.024.188.036.38.036.576 0 2.71-2.15 4.916-4.788 4.916H8.875v-4.441l-6.74 5.595 6.74 5.591v-4.145h12.926c4.038 0 7.32-3.373 7.32-7.516a7.62 7.62 0 0 0-.407-2.458l-2.161 1.882Z" fill="#9996A7"></path></svg>